<?xml version="1.0" encoding="utf-8" standalone="no"?>
<!DOCTYPE svg PUBLIC "-//W3C//DTD SVG 1.1//EN"
  "http://www.w3.org/Graphics/SVG/1.1/DTD/svg11.dtd">
<svg xmlns:xlink="http://www.w3.org/1999/xlink" width="712.681875pt" height="567.689375pt" viewBox="0 0 712.681875 567.689375" xmlns="http://www.w3.org/2000/svg" version="1.1">
 <metadata>
  <rdf:RDF xmlns:dc="http://purl.org/dc/elements/1.1/" xmlns:cc="http://creativecommons.org/ns#" xmlns:rdf="http://www.w3.org/1999/02/22-rdf-syntax-ns#">
   <cc:Work>
    <dc:type rdf:resource="http://purl.org/dc/dcmitype/StillImage"/>
    <dc:date>2025-08-11T18:01:06.865906</dc:date>
    <dc:format>image/svg+xml</dc:format>
    <dc:creator>
     <cc:Agent>
      <dc:title>Matplotlib v3.10.3, https://matplotlib.org/</dc:title>
     </cc:Agent>
    </dc:creator>
   </cc:Work>
  </rdf:RDF>
 </metadata>
 <defs>
  <style type="text/css">*{stroke-linejoin: round; stroke-linecap: butt}</style>
 </defs>
 <g id="figure_1">
  <g id="patch_1">
   <path d="M 0 567.689375 
L 712.681875 567.689375 
L 712.681875 0 
L 0 0 
z
" style="fill: #ffffff"/>
  </g>
  <g id="axes_1">
   <g id="patch_2">
    <path d="M 97.421875 528.1975 
L 705.481875 528.1975 
L 705.481875 25.3575 
L 97.421875 25.3575 
z
" style="fill: #ffffff"/>
   </g>
   <g id="matplotlib.axis_1">
    <g id="xtick_1">
     <g id="line2d_1">
      <path d="M 124.069803 528.1975 
L 124.069803 25.3575 
" clip-path="url(#p07197b34a8)" style="fill: none; stroke-dasharray: 2.59,1.12; stroke-dashoffset: 0; stroke: #e0e0e0; stroke-width: 0.7"/>
     </g>
     <g id="text_1">
      <!-- −0.2 -->
      <g style="fill: #262626" transform="translate(111.928397 542.795938) scale(0.1 -0.1)">
       <defs>
        <path id="DejaVuSans-2212" d="M 678 2272 
L 4684 2272 
L 4684 1741 
L 678 1741 
L 678 2272 
z
" transform="scale(0.015625)"/>
        <path id="DejaVuSans-30" d="M 2034 4250 
Q 1547 4250 1301 3770 
Q 1056 3291 1056 2328 
Q 1056 1369 1301 889 
Q 1547 409 2034 409 
Q 2525 409 2770 889 
Q 3016 1369 3016 2328 
Q 3016 3291 2770 3770 
Q 2525 4250 2034 4250 
z
M 2034 4750 
Q 2819 4750 3233 4129 
Q 3647 3509 3647 2328 
Q 3647 1150 3233 529 
Q 2819 -91 2034 -91 
Q 1250 -91 836 529 
Q 422 1150 422 2328 
Q 422 3509 836 4129 
Q 1250 4750 2034 4750 
z
" transform="scale(0.015625)"/>
        <path id="DejaVuSans-2e" d="M 684 794 
L 1344 794 
L 1344 0 
L 684 0 
L 684 794 
z
" transform="scale(0.015625)"/>
        <path id="DejaVuSans-32" d="M 1228 531 
L 3431 531 
L 3431 0 
L 469 0 
L 469 531 
Q 828 903 1448 1529 
Q 2069 2156 2228 2338 
Q 2531 2678 2651 2914 
Q 2772 3150 2772 3378 
Q 2772 3750 2511 3984 
Q 2250 4219 1831 4219 
Q 1534 4219 1204 4116 
Q 875 4013 500 3803 
L 500 4441 
Q 881 4594 1212 4672 
Q 1544 4750 1819 4750 
Q 2544 4750 2975 4387 
Q 3406 4025 3406 3419 
Q 3406 3131 3298 2873 
Q 3191 2616 2906 2266 
Q 2828 2175 2409 1742 
Q 1991 1309 1228 531 
z
" transform="scale(0.015625)"/>
       </defs>
       <use xlink:href="#DejaVuSans-2212"/>
       <use xlink:href="#DejaVuSans-30" transform="translate(83.789062 0)"/>
       <use xlink:href="#DejaVuSans-2e" transform="translate(147.412109 0)"/>
       <use xlink:href="#DejaVuSans-32" transform="translate(179.199219 0)"/>
      </g>
     </g>
    </g>
    <g id="xtick_2">
     <g id="line2d_2">
      <path d="M 225.492453 528.1975 
L 225.492453 25.3575 
" clip-path="url(#p07197b34a8)" style="fill: none; stroke-dasharray: 2.59,1.12; stroke-dashoffset: 0; stroke: #e0e0e0; stroke-width: 0.7"/>
     </g>
     <g id="text_2">
      <!-- −0.1 -->
      <g style="fill: #262626" transform="translate(213.351047 542.795938) scale(0.1 -0.1)">
       <defs>
        <path id="DejaVuSans-31" d="M 794 531 
L 1825 531 
L 1825 4091 
L 703 3866 
L 703 4441 
L 1819 4666 
L 2450 4666 
L 2450 531 
L 3481 531 
L 3481 0 
L 794 0 
L 794 531 
z
" transform="scale(0.015625)"/>
       </defs>
       <use xlink:href="#DejaVuSans-2212"/>
       <use xlink:href="#DejaVuSans-30" transform="translate(83.789062 0)"/>
       <use xlink:href="#DejaVuSans-2e" transform="translate(147.412109 0)"/>
       <use xlink:href="#DejaVuSans-31" transform="translate(179.199219 0)"/>
      </g>
     </g>
    </g>
    <g id="xtick_3">
     <g id="line2d_3">
      <path d="M 326.915103 528.1975 
L 326.915103 25.3575 
" clip-path="url(#p07197b34a8)" style="fill: none; stroke-dasharray: 2.59,1.12; stroke-dashoffset: 0; stroke: #e0e0e0; stroke-width: 0.7"/>
     </g>
     <g id="text_3">
      <!-- 0.0 -->
      <g style="fill: #262626" transform="translate(318.96354 542.795938) scale(0.1 -0.1)">
       <use xlink:href="#DejaVuSans-30"/>
       <use xlink:href="#DejaVuSans-2e" transform="translate(63.623047 0)"/>
       <use xlink:href="#DejaVuSans-30" transform="translate(95.410156 0)"/>
      </g>
     </g>
    </g>
    <g id="xtick_4">
     <g id="line2d_4">
      <path d="M 428.337752 528.1975 
L 428.337752 25.3575 
" clip-path="url(#p07197b34a8)" style="fill: none; stroke-dasharray: 2.59,1.12; stroke-dashoffset: 0; stroke: #e0e0e0; stroke-width: 0.7"/>
     </g>
     <g id="text_4">
      <!-- 0.1 -->
      <g style="fill: #262626" transform="translate(420.38619 542.795938) scale(0.1 -0.1)">
       <use xlink:href="#DejaVuSans-30"/>
       <use xlink:href="#DejaVuSans-2e" transform="translate(63.623047 0)"/>
       <use xlink:href="#DejaVuSans-31" transform="translate(95.410156 0)"/>
      </g>
     </g>
    </g>
    <g id="xtick_5">
     <g id="line2d_5">
      <path d="M 529.760402 528.1975 
L 529.760402 25.3575 
" clip-path="url(#p07197b34a8)" style="fill: none; stroke-dasharray: 2.59,1.12; stroke-dashoffset: 0; stroke: #e0e0e0; stroke-width: 0.7"/>
     </g>
     <g id="text_5">
      <!-- 0.2 -->
      <g style="fill: #262626" transform="translate(521.80884 542.795938) scale(0.1 -0.1)">
       <use xlink:href="#DejaVuSans-30"/>
       <use xlink:href="#DejaVuSans-2e" transform="translate(63.623047 0)"/>
       <use xlink:href="#DejaVuSans-32" transform="translate(95.410156 0)"/>
      </g>
     </g>
    </g>
    <g id="xtick_6">
     <g id="line2d_6">
      <path d="M 631.183052 528.1975 
L 631.183052 25.3575 
" clip-path="url(#p07197b34a8)" style="fill: none; stroke-dasharray: 2.59,1.12; stroke-dashoffset: 0; stroke: #e0e0e0; stroke-width: 0.7"/>
     </g>
     <g id="text_6">
      <!-- 0.3 -->
      <g style="fill: #262626" transform="translate(623.23149 542.795938) scale(0.1 -0.1)">
       <defs>
        <path id="DejaVuSans-33" d="M 2597 2516 
Q 3050 2419 3304 2112 
Q 3559 1806 3559 1356 
Q 3559 666 3084 287 
Q 2609 -91 1734 -91 
Q 1441 -91 1130 -33 
Q 819 25 488 141 
L 488 750 
Q 750 597 1062 519 
Q 1375 441 1716 441 
Q 2309 441 2620 675 
Q 2931 909 2931 1356 
Q 2931 1769 2642 2001 
Q 2353 2234 1838 2234 
L 1294 2234 
L 1294 2753 
L 1863 2753 
Q 2328 2753 2575 2939 
Q 2822 3125 2822 3475 
Q 2822 3834 2567 4026 
Q 2313 4219 1838 4219 
Q 1578 4219 1281 4162 
Q 984 4106 628 3988 
L 628 4550 
Q 988 4650 1302 4700 
Q 1616 4750 1894 4750 
Q 2613 4750 3031 4423 
Q 3450 4097 3450 3541 
Q 3450 3153 3228 2886 
Q 3006 2619 2597 2516 
z
" transform="scale(0.015625)"/>
       </defs>
       <use xlink:href="#DejaVuSans-30"/>
       <use xlink:href="#DejaVuSans-2e" transform="translate(63.623047 0)"/>
       <use xlink:href="#DejaVuSans-33" transform="translate(95.410156 0)"/>
      </g>
     </g>
    </g>
    <g id="text_7">
     <!-- Weighted Regression Coefficient -->
     <g style="fill: #262626" transform="translate(304.162813 557.99375) scale(0.12 -0.12)">
      <defs>
       <path id="DejaVuSans-57" d="M 213 4666 
L 850 4666 
L 1831 722 
L 2809 4666 
L 3519 4666 
L 4500 722 
L 5478 4666 
L 6119 4666 
L 4947 0 
L 4153 0 
L 3169 4050 
L 2175 0 
L 1381 0 
L 213 4666 
z
" transform="scale(0.015625)"/>
       <path id="DejaVuSans-65" d="M 3597 1894 
L 3597 1613 
L 953 1613 
Q 991 1019 1311 708 
Q 1631 397 2203 397 
Q 2534 397 2845 478 
Q 3156 559 3463 722 
L 3463 178 
Q 3153 47 2828 -22 
Q 2503 -91 2169 -91 
Q 1331 -91 842 396 
Q 353 884 353 1716 
Q 353 2575 817 3079 
Q 1281 3584 2069 3584 
Q 2775 3584 3186 3129 
Q 3597 2675 3597 1894 
z
M 3022 2063 
Q 3016 2534 2758 2815 
Q 2500 3097 2075 3097 
Q 1594 3097 1305 2825 
Q 1016 2553 972 2059 
L 3022 2063 
z
" transform="scale(0.015625)"/>
       <path id="DejaVuSans-69" d="M 603 3500 
L 1178 3500 
L 1178 0 
L 603 0 
L 603 3500 
z
M 603 4863 
L 1178 4863 
L 1178 4134 
L 603 4134 
L 603 4863 
z
" transform="scale(0.015625)"/>
       <path id="DejaVuSans-67" d="M 2906 1791 
Q 2906 2416 2648 2759 
Q 2391 3103 1925 3103 
Q 1463 3103 1205 2759 
Q 947 2416 947 1791 
Q 947 1169 1205 825 
Q 1463 481 1925 481 
Q 2391 481 2648 825 
Q 2906 1169 2906 1791 
z
M 3481 434 
Q 3481 -459 3084 -895 
Q 2688 -1331 1869 -1331 
Q 1566 -1331 1297 -1286 
Q 1028 -1241 775 -1147 
L 775 -588 
Q 1028 -725 1275 -790 
Q 1522 -856 1778 -856 
Q 2344 -856 2625 -561 
Q 2906 -266 2906 331 
L 2906 616 
Q 2728 306 2450 153 
Q 2172 0 1784 0 
Q 1141 0 747 490 
Q 353 981 353 1791 
Q 353 2603 747 3093 
Q 1141 3584 1784 3584 
Q 2172 3584 2450 3431 
Q 2728 3278 2906 2969 
L 2906 3500 
L 3481 3500 
L 3481 434 
z
" transform="scale(0.015625)"/>
       <path id="DejaVuSans-68" d="M 3513 2113 
L 3513 0 
L 2938 0 
L 2938 2094 
Q 2938 2591 2744 2837 
Q 2550 3084 2163 3084 
Q 1697 3084 1428 2787 
Q 1159 2491 1159 1978 
L 1159 0 
L 581 0 
L 581 4863 
L 1159 4863 
L 1159 2956 
Q 1366 3272 1645 3428 
Q 1925 3584 2291 3584 
Q 2894 3584 3203 3211 
Q 3513 2838 3513 2113 
z
" transform="scale(0.015625)"/>
       <path id="DejaVuSans-74" d="M 1172 4494 
L 1172 3500 
L 2356 3500 
L 2356 3053 
L 1172 3053 
L 1172 1153 
Q 1172 725 1289 603 
Q 1406 481 1766 481 
L 2356 481 
L 2356 0 
L 1766 0 
Q 1100 0 847 248 
Q 594 497 594 1153 
L 594 3053 
L 172 3053 
L 172 3500 
L 594 3500 
L 594 4494 
L 1172 4494 
z
" transform="scale(0.015625)"/>
       <path id="DejaVuSans-64" d="M 2906 2969 
L 2906 4863 
L 3481 4863 
L 3481 0 
L 2906 0 
L 2906 525 
Q 2725 213 2448 61 
Q 2172 -91 1784 -91 
Q 1150 -91 751 415 
Q 353 922 353 1747 
Q 353 2572 751 3078 
Q 1150 3584 1784 3584 
Q 2172 3584 2448 3432 
Q 2725 3281 2906 2969 
z
M 947 1747 
Q 947 1113 1208 752 
Q 1469 391 1925 391 
Q 2381 391 2643 752 
Q 2906 1113 2906 1747 
Q 2906 2381 2643 2742 
Q 2381 3103 1925 3103 
Q 1469 3103 1208 2742 
Q 947 2381 947 1747 
z
" transform="scale(0.015625)"/>
       <path id="DejaVuSans-20" transform="scale(0.015625)"/>
       <path id="DejaVuSans-52" d="M 2841 2188 
Q 3044 2119 3236 1894 
Q 3428 1669 3622 1275 
L 4263 0 
L 3584 0 
L 2988 1197 
Q 2756 1666 2539 1819 
Q 2322 1972 1947 1972 
L 1259 1972 
L 1259 0 
L 628 0 
L 628 4666 
L 2053 4666 
Q 2853 4666 3247 4331 
Q 3641 3997 3641 3322 
Q 3641 2881 3436 2590 
Q 3231 2300 2841 2188 
z
M 1259 4147 
L 1259 2491 
L 2053 2491 
Q 2509 2491 2742 2702 
Q 2975 2913 2975 3322 
Q 2975 3731 2742 3939 
Q 2509 4147 2053 4147 
L 1259 4147 
z
" transform="scale(0.015625)"/>
       <path id="DejaVuSans-72" d="M 2631 2963 
Q 2534 3019 2420 3045 
Q 2306 3072 2169 3072 
Q 1681 3072 1420 2755 
Q 1159 2438 1159 1844 
L 1159 0 
L 581 0 
L 581 3500 
L 1159 3500 
L 1159 2956 
Q 1341 3275 1631 3429 
Q 1922 3584 2338 3584 
Q 2397 3584 2469 3576 
Q 2541 3569 2628 3553 
L 2631 2963 
z
" transform="scale(0.015625)"/>
       <path id="DejaVuSans-73" d="M 2834 3397 
L 2834 2853 
Q 2591 2978 2328 3040 
Q 2066 3103 1784 3103 
Q 1356 3103 1142 2972 
Q 928 2841 928 2578 
Q 928 2378 1081 2264 
Q 1234 2150 1697 2047 
L 1894 2003 
Q 2506 1872 2764 1633 
Q 3022 1394 3022 966 
Q 3022 478 2636 193 
Q 2250 -91 1575 -91 
Q 1294 -91 989 -36 
Q 684 19 347 128 
L 347 722 
Q 666 556 975 473 
Q 1284 391 1588 391 
Q 1994 391 2212 530 
Q 2431 669 2431 922 
Q 2431 1156 2273 1281 
Q 2116 1406 1581 1522 
L 1381 1569 
Q 847 1681 609 1914 
Q 372 2147 372 2553 
Q 372 3047 722 3315 
Q 1072 3584 1716 3584 
Q 2034 3584 2315 3537 
Q 2597 3491 2834 3397 
z
" transform="scale(0.015625)"/>
       <path id="DejaVuSans-6f" d="M 1959 3097 
Q 1497 3097 1228 2736 
Q 959 2375 959 1747 
Q 959 1119 1226 758 
Q 1494 397 1959 397 
Q 2419 397 2687 759 
Q 2956 1122 2956 1747 
Q 2956 2369 2687 2733 
Q 2419 3097 1959 3097 
z
M 1959 3584 
Q 2709 3584 3137 3096 
Q 3566 2609 3566 1747 
Q 3566 888 3137 398 
Q 2709 -91 1959 -91 
Q 1206 -91 779 398 
Q 353 888 353 1747 
Q 353 2609 779 3096 
Q 1206 3584 1959 3584 
z
" transform="scale(0.015625)"/>
       <path id="DejaVuSans-6e" d="M 3513 2113 
L 3513 0 
L 2938 0 
L 2938 2094 
Q 2938 2591 2744 2837 
Q 2550 3084 2163 3084 
Q 1697 3084 1428 2787 
Q 1159 2491 1159 1978 
L 1159 0 
L 581 0 
L 581 3500 
L 1159 3500 
L 1159 2956 
Q 1366 3272 1645 3428 
Q 1925 3584 2291 3584 
Q 2894 3584 3203 3211 
Q 3513 2838 3513 2113 
z
" transform="scale(0.015625)"/>
       <path id="DejaVuSans-43" d="M 4122 4306 
L 4122 3641 
Q 3803 3938 3442 4084 
Q 3081 4231 2675 4231 
Q 1875 4231 1450 3742 
Q 1025 3253 1025 2328 
Q 1025 1406 1450 917 
Q 1875 428 2675 428 
Q 3081 428 3442 575 
Q 3803 722 4122 1019 
L 4122 359 
Q 3791 134 3420 21 
Q 3050 -91 2638 -91 
Q 1578 -91 968 557 
Q 359 1206 359 2328 
Q 359 3453 968 4101 
Q 1578 4750 2638 4750 
Q 3056 4750 3426 4639 
Q 3797 4528 4122 4306 
z
" transform="scale(0.015625)"/>
       <path id="DejaVuSans-66" d="M 2375 4863 
L 2375 4384 
L 1825 4384 
Q 1516 4384 1395 4259 
Q 1275 4134 1275 3809 
L 1275 3500 
L 2222 3500 
L 2222 3053 
L 1275 3053 
L 1275 0 
L 697 0 
L 697 3053 
L 147 3053 
L 147 3500 
L 697 3500 
L 697 3744 
Q 697 4328 969 4595 
Q 1241 4863 1831 4863 
L 2375 4863 
z
" transform="scale(0.015625)"/>
       <path id="DejaVuSans-63" d="M 3122 3366 
L 3122 2828 
Q 2878 2963 2633 3030 
Q 2388 3097 2138 3097 
Q 1578 3097 1268 2742 
Q 959 2388 959 1747 
Q 959 1106 1268 751 
Q 1578 397 2138 397 
Q 2388 397 2633 464 
Q 2878 531 3122 666 
L 3122 134 
Q 2881 22 2623 -34 
Q 2366 -91 2075 -91 
Q 1284 -91 818 406 
Q 353 903 353 1747 
Q 353 2603 823 3093 
Q 1294 3584 2113 3584 
Q 2378 3584 2631 3529 
Q 2884 3475 3122 3366 
z
" transform="scale(0.015625)"/>
      </defs>
      <use xlink:href="#DejaVuSans-57"/>
      <use xlink:href="#DejaVuSans-65" transform="translate(93.001953 0)"/>
      <use xlink:href="#DejaVuSans-69" transform="translate(154.525391 0)"/>
      <use xlink:href="#DejaVuSans-67" transform="translate(182.308594 0)"/>
      <use xlink:href="#DejaVuSans-68" transform="translate(245.785156 0)"/>
      <use xlink:href="#DejaVuSans-74" transform="translate(309.164062 0)"/>
      <use xlink:href="#DejaVuSans-65" transform="translate(348.373047 0)"/>
      <use xlink:href="#DejaVuSans-64" transform="translate(409.896484 0)"/>
      <use xlink:href="#DejaVuSans-20" transform="translate(473.373047 0)"/>
      <use xlink:href="#DejaVuSans-52" transform="translate(505.160156 0)"/>
      <use xlink:href="#DejaVuSans-65" transform="translate(570.142578 0)"/>
      <use xlink:href="#DejaVuSans-67" transform="translate(631.666016 0)"/>
      <use xlink:href="#DejaVuSans-72" transform="translate(695.142578 0)"/>
      <use xlink:href="#DejaVuSans-65" transform="translate(734.005859 0)"/>
      <use xlink:href="#DejaVuSans-73" transform="translate(795.529297 0)"/>
      <use xlink:href="#DejaVuSans-73" transform="translate(847.628906 0)"/>
      <use xlink:href="#DejaVuSans-69" transform="translate(899.728516 0)"/>
      <use xlink:href="#DejaVuSans-6f" transform="translate(927.511719 0)"/>
      <use xlink:href="#DejaVuSans-6e" transform="translate(988.693359 0)"/>
      <use xlink:href="#DejaVuSans-20" transform="translate(1052.072266 0)"/>
      <use xlink:href="#DejaVuSans-43" transform="translate(1083.859375 0)"/>
      <use xlink:href="#DejaVuSans-6f" transform="translate(1153.683594 0)"/>
      <use xlink:href="#DejaVuSans-65" transform="translate(1214.865234 0)"/>
      <use xlink:href="#DejaVuSans-66" transform="translate(1276.388672 0)"/>
      <use xlink:href="#DejaVuSans-66" transform="translate(1311.59375 0)"/>
      <use xlink:href="#DejaVuSans-69" transform="translate(1346.798828 0)"/>
      <use xlink:href="#DejaVuSans-63" transform="translate(1374.582031 0)"/>
      <use xlink:href="#DejaVuSans-69" transform="translate(1429.5625 0)"/>
      <use xlink:href="#DejaVuSans-65" transform="translate(1457.345703 0)"/>
      <use xlink:href="#DejaVuSans-6e" transform="translate(1518.869141 0)"/>
      <use xlink:href="#DejaVuSans-74" transform="translate(1582.248047 0)"/>
     </g>
    </g>
   </g>
   <g id="matplotlib.axis_2">
    <g id="ytick_1">
     <g id="line2d_7">
      <path d="M 97.421875 491.055909 
L 705.481875 491.055909 
" clip-path="url(#p07197b34a8)" style="fill: none; stroke-dasharray: 2.59,1.12; stroke-dashoffset: 0; stroke: #e0e0e0; stroke-width: 0.7"/>
     </g>
     <g id="text_8">
      <!-- plastic straw -->
      <g style="fill: #262626" transform="translate(27.035938 494.855128) scale(0.1 -0.1)">
       <defs>
        <path id="DejaVuSans-70" d="M 1159 525 
L 1159 -1331 
L 581 -1331 
L 581 3500 
L 1159 3500 
L 1159 2969 
Q 1341 3281 1617 3432 
Q 1894 3584 2278 3584 
Q 2916 3584 3314 3078 
Q 3713 2572 3713 1747 
Q 3713 922 3314 415 
Q 2916 -91 2278 -91 
Q 1894 -91 1617 61 
Q 1341 213 1159 525 
z
M 3116 1747 
Q 3116 2381 2855 2742 
Q 2594 3103 2138 3103 
Q 1681 3103 1420 2742 
Q 1159 2381 1159 1747 
Q 1159 1113 1420 752 
Q 1681 391 2138 391 
Q 2594 391 2855 752 
Q 3116 1113 3116 1747 
z
" transform="scale(0.015625)"/>
        <path id="DejaVuSans-6c" d="M 603 4863 
L 1178 4863 
L 1178 0 
L 603 0 
L 603 4863 
z
" transform="scale(0.015625)"/>
        <path id="DejaVuSans-61" d="M 2194 1759 
Q 1497 1759 1228 1600 
Q 959 1441 959 1056 
Q 959 750 1161 570 
Q 1363 391 1709 391 
Q 2188 391 2477 730 
Q 2766 1069 2766 1631 
L 2766 1759 
L 2194 1759 
z
M 3341 1997 
L 3341 0 
L 2766 0 
L 2766 531 
Q 2569 213 2275 61 
Q 1981 -91 1556 -91 
Q 1019 -91 701 211 
Q 384 513 384 1019 
Q 384 1609 779 1909 
Q 1175 2209 1959 2209 
L 2766 2209 
L 2766 2266 
Q 2766 2663 2505 2880 
Q 2244 3097 1772 3097 
Q 1472 3097 1187 3025 
Q 903 2953 641 2809 
L 641 3341 
Q 956 3463 1253 3523 
Q 1550 3584 1831 3584 
Q 2591 3584 2966 3190 
Q 3341 2797 3341 1997 
z
" transform="scale(0.015625)"/>
        <path id="DejaVuSans-77" d="M 269 3500 
L 844 3500 
L 1563 769 
L 2278 3500 
L 2956 3500 
L 3675 769 
L 4391 3500 
L 4966 3500 
L 4050 0 
L 3372 0 
L 2619 2869 
L 1863 0 
L 1184 0 
L 269 3500 
z
" transform="scale(0.015625)"/>
       </defs>
       <use xlink:href="#DejaVuSans-70"/>
       <use xlink:href="#DejaVuSans-6c" transform="translate(63.476562 0)"/>
       <use xlink:href="#DejaVuSans-61" transform="translate(91.259766 0)"/>
       <use xlink:href="#DejaVuSans-73" transform="translate(152.539062 0)"/>
       <use xlink:href="#DejaVuSans-74" transform="translate(204.638672 0)"/>
       <use xlink:href="#DejaVuSans-69" transform="translate(243.847656 0)"/>
       <use xlink:href="#DejaVuSans-63" transform="translate(271.630859 0)"/>
       <use xlink:href="#DejaVuSans-20" transform="translate(326.611328 0)"/>
       <use xlink:href="#DejaVuSans-73" transform="translate(358.398438 0)"/>
       <use xlink:href="#DejaVuSans-74" transform="translate(410.498047 0)"/>
       <use xlink:href="#DejaVuSans-72" transform="translate(449.707031 0)"/>
       <use xlink:href="#DejaVuSans-61" transform="translate(490.820312 0)"/>
       <use xlink:href="#DejaVuSans-77" transform="translate(552.099609 0)"/>
      </g>
     </g>
    </g>
    <g id="ytick_2">
     <g id="line2d_8">
      <path d="M 97.421875 455.342841 
L 705.481875 455.342841 
" clip-path="url(#p07197b34a8)" style="fill: none; stroke-dasharray: 2.59,1.12; stroke-dashoffset: 0; stroke: #e0e0e0; stroke-width: 0.7"/>
     </g>
     <g id="text_9">
      <!-- food box -->
      <g style="fill: #262626" transform="translate(47.064063 459.14206) scale(0.1 -0.1)">
       <defs>
        <path id="DejaVuSans-62" d="M 3116 1747 
Q 3116 2381 2855 2742 
Q 2594 3103 2138 3103 
Q 1681 3103 1420 2742 
Q 1159 2381 1159 1747 
Q 1159 1113 1420 752 
Q 1681 391 2138 391 
Q 2594 391 2855 752 
Q 3116 1113 3116 1747 
z
M 1159 2969 
Q 1341 3281 1617 3432 
Q 1894 3584 2278 3584 
Q 2916 3584 3314 3078 
Q 3713 2572 3713 1747 
Q 3713 922 3314 415 
Q 2916 -91 2278 -91 
Q 1894 -91 1617 61 
Q 1341 213 1159 525 
L 1159 0 
L 581 0 
L 581 4863 
L 1159 4863 
L 1159 2969 
z
" transform="scale(0.015625)"/>
        <path id="DejaVuSans-78" d="M 3513 3500 
L 2247 1797 
L 3578 0 
L 2900 0 
L 1881 1375 
L 863 0 
L 184 0 
L 1544 1831 
L 300 3500 
L 978 3500 
L 1906 2253 
L 2834 3500 
L 3513 3500 
z
" transform="scale(0.015625)"/>
       </defs>
       <use xlink:href="#DejaVuSans-66"/>
       <use xlink:href="#DejaVuSans-6f" transform="translate(35.205078 0)"/>
       <use xlink:href="#DejaVuSans-6f" transform="translate(96.386719 0)"/>
       <use xlink:href="#DejaVuSans-64" transform="translate(157.568359 0)"/>
       <use xlink:href="#DejaVuSans-20" transform="translate(221.044922 0)"/>
       <use xlink:href="#DejaVuSans-62" transform="translate(252.832031 0)"/>
       <use xlink:href="#DejaVuSans-6f" transform="translate(316.308594 0)"/>
       <use xlink:href="#DejaVuSans-78" transform="translate(374.365234 0)"/>
      </g>
     </g>
    </g>
    <g id="ytick_3">
     <g id="line2d_9">
      <path d="M 97.421875 419.629773 
L 705.481875 419.629773 
" clip-path="url(#p07197b34a8)" style="fill: none; stroke-dasharray: 2.59,1.12; stroke-dashoffset: 0; stroke: #e0e0e0; stroke-width: 0.7"/>
     </g>
     <g id="text_10">
      <!-- paper bag -->
      <g style="fill: #262626" transform="translate(39.329688 423.428991) scale(0.1 -0.1)">
       <use xlink:href="#DejaVuSans-70"/>
       <use xlink:href="#DejaVuSans-61" transform="translate(63.476562 0)"/>
       <use xlink:href="#DejaVuSans-70" transform="translate(124.755859 0)"/>
       <use xlink:href="#DejaVuSans-65" transform="translate(188.232422 0)"/>
       <use xlink:href="#DejaVuSans-72" transform="translate(249.755859 0)"/>
       <use xlink:href="#DejaVuSans-20" transform="translate(290.869141 0)"/>
       <use xlink:href="#DejaVuSans-62" transform="translate(322.65625 0)"/>
       <use xlink:href="#DejaVuSans-61" transform="translate(386.132812 0)"/>
       <use xlink:href="#DejaVuSans-67" transform="translate(447.412109 0)"/>
      </g>
     </g>
    </g>
    <g id="ytick_4">
     <g id="line2d_10">
      <path d="M 97.421875 383.916705 
L 705.481875 383.916705 
" clip-path="url(#p07197b34a8)" style="fill: none; stroke-dasharray: 2.59,1.12; stroke-dashoffset: 0; stroke: #e0e0e0; stroke-width: 0.7"/>
     </g>
     <g id="text_11">
      <!-- napkin -->
      <g style="fill: #262626" transform="translate(56.701563 387.715923) scale(0.1 -0.1)">
       <defs>
        <path id="DejaVuSans-6b" d="M 581 4863 
L 1159 4863 
L 1159 1991 
L 2875 3500 
L 3609 3500 
L 1753 1863 
L 3688 0 
L 2938 0 
L 1159 1709 
L 1159 0 
L 581 0 
L 581 4863 
z
" transform="scale(0.015625)"/>
       </defs>
       <use xlink:href="#DejaVuSans-6e"/>
       <use xlink:href="#DejaVuSans-61" transform="translate(63.378906 0)"/>
       <use xlink:href="#DejaVuSans-70" transform="translate(124.658203 0)"/>
       <use xlink:href="#DejaVuSans-6b" transform="translate(188.134766 0)"/>
       <use xlink:href="#DejaVuSans-69" transform="translate(246.044922 0)"/>
       <use xlink:href="#DejaVuSans-6e" transform="translate(273.828125 0)"/>
      </g>
     </g>
    </g>
    <g id="ytick_5">
     <g id="line2d_11">
      <path d="M 97.421875 348.203636 
L 705.481875 348.203636 
" clip-path="url(#p07197b34a8)" style="fill: none; stroke-dasharray: 2.59,1.12; stroke-dashoffset: 0; stroke: #e0e0e0; stroke-width: 0.7"/>
     </g>
     <g id="text_12">
      <!-- plastic cutlery -->
      <g style="fill: #262626" transform="translate(19.865625 352.002855) scale(0.1 -0.1)">
       <defs>
        <path id="DejaVuSans-75" d="M 544 1381 
L 544 3500 
L 1119 3500 
L 1119 1403 
Q 1119 906 1312 657 
Q 1506 409 1894 409 
Q 2359 409 2629 706 
Q 2900 1003 2900 1516 
L 2900 3500 
L 3475 3500 
L 3475 0 
L 2900 0 
L 2900 538 
Q 2691 219 2414 64 
Q 2138 -91 1772 -91 
Q 1169 -91 856 284 
Q 544 659 544 1381 
z
M 1991 3584 
L 1991 3584 
z
" transform="scale(0.015625)"/>
        <path id="DejaVuSans-79" d="M 2059 -325 
Q 1816 -950 1584 -1140 
Q 1353 -1331 966 -1331 
L 506 -1331 
L 506 -850 
L 844 -850 
Q 1081 -850 1212 -737 
Q 1344 -625 1503 -206 
L 1606 56 
L 191 3500 
L 800 3500 
L 1894 763 
L 2988 3500 
L 3597 3500 
L 2059 -325 
z
" transform="scale(0.015625)"/>
       </defs>
       <use xlink:href="#DejaVuSans-70"/>
       <use xlink:href="#DejaVuSans-6c" transform="translate(63.476562 0)"/>
       <use xlink:href="#DejaVuSans-61" transform="translate(91.259766 0)"/>
       <use xlink:href="#DejaVuSans-73" transform="translate(152.539062 0)"/>
       <use xlink:href="#DejaVuSans-74" transform="translate(204.638672 0)"/>
       <use xlink:href="#DejaVuSans-69" transform="translate(243.847656 0)"/>
       <use xlink:href="#DejaVuSans-63" transform="translate(271.630859 0)"/>
       <use xlink:href="#DejaVuSans-20" transform="translate(326.611328 0)"/>
       <use xlink:href="#DejaVuSans-63" transform="translate(358.398438 0)"/>
       <use xlink:href="#DejaVuSans-75" transform="translate(413.378906 0)"/>
       <use xlink:href="#DejaVuSans-74" transform="translate(476.757812 0)"/>
       <use xlink:href="#DejaVuSans-6c" transform="translate(515.966797 0)"/>
       <use xlink:href="#DejaVuSans-65" transform="translate(543.75 0)"/>
       <use xlink:href="#DejaVuSans-72" transform="translate(605.273438 0)"/>
       <use xlink:href="#DejaVuSans-79" transform="translate(646.386719 0)"/>
      </g>
     </g>
    </g>
    <g id="ytick_6">
     <g id="line2d_12">
      <path d="M 97.421875 312.490568 
L 705.481875 312.490568 
" clip-path="url(#p07197b34a8)" style="fill: none; stroke-dasharray: 2.59,1.12; stroke-dashoffset: 0; stroke: #e0e0e0; stroke-width: 0.7"/>
     </g>
     <g id="text_13">
      <!-- food scraps -->
      <g style="fill: #262626" transform="translate(32.632813 316.289787) scale(0.1 -0.1)">
       <use xlink:href="#DejaVuSans-66"/>
       <use xlink:href="#DejaVuSans-6f" transform="translate(35.205078 0)"/>
       <use xlink:href="#DejaVuSans-6f" transform="translate(96.386719 0)"/>
       <use xlink:href="#DejaVuSans-64" transform="translate(157.568359 0)"/>
       <use xlink:href="#DejaVuSans-20" transform="translate(221.044922 0)"/>
       <use xlink:href="#DejaVuSans-73" transform="translate(252.832031 0)"/>
       <use xlink:href="#DejaVuSans-63" transform="translate(304.931641 0)"/>
       <use xlink:href="#DejaVuSans-72" transform="translate(359.912109 0)"/>
       <use xlink:href="#DejaVuSans-61" transform="translate(401.025391 0)"/>
       <use xlink:href="#DejaVuSans-70" transform="translate(462.304688 0)"/>
       <use xlink:href="#DejaVuSans-73" transform="translate(525.78125 0)"/>
      </g>
     </g>
    </g>
    <g id="ytick_7">
     <g id="line2d_13">
      <path d="M 97.421875 276.7775 
L 705.481875 276.7775 
" clip-path="url(#p07197b34a8)" style="fill: none; stroke-dasharray: 2.59,1.12; stroke-dashoffset: 0; stroke: #e0e0e0; stroke-width: 0.7"/>
     </g>
     <g id="text_14">
      <!-- aluminium can -->
      <g style="fill: #262626" transform="translate(16.323438 280.576719) scale(0.1 -0.1)">
       <defs>
        <path id="DejaVuSans-6d" d="M 3328 2828 
Q 3544 3216 3844 3400 
Q 4144 3584 4550 3584 
Q 5097 3584 5394 3201 
Q 5691 2819 5691 2113 
L 5691 0 
L 5113 0 
L 5113 2094 
Q 5113 2597 4934 2840 
Q 4756 3084 4391 3084 
Q 3944 3084 3684 2787 
Q 3425 2491 3425 1978 
L 3425 0 
L 2847 0 
L 2847 2094 
Q 2847 2600 2669 2842 
Q 2491 3084 2119 3084 
Q 1678 3084 1418 2786 
Q 1159 2488 1159 1978 
L 1159 0 
L 581 0 
L 581 3500 
L 1159 3500 
L 1159 2956 
Q 1356 3278 1631 3431 
Q 1906 3584 2284 3584 
Q 2666 3584 2933 3390 
Q 3200 3197 3328 2828 
z
" transform="scale(0.015625)"/>
       </defs>
       <use xlink:href="#DejaVuSans-61"/>
       <use xlink:href="#DejaVuSans-6c" transform="translate(61.279297 0)"/>
       <use xlink:href="#DejaVuSans-75" transform="translate(89.0625 0)"/>
       <use xlink:href="#DejaVuSans-6d" transform="translate(152.441406 0)"/>
       <use xlink:href="#DejaVuSans-69" transform="translate(249.853516 0)"/>
       <use xlink:href="#DejaVuSans-6e" transform="translate(277.636719 0)"/>
       <use xlink:href="#DejaVuSans-69" transform="translate(341.015625 0)"/>
       <use xlink:href="#DejaVuSans-75" transform="translate(368.798828 0)"/>
       <use xlink:href="#DejaVuSans-6d" transform="translate(432.177734 0)"/>
       <use xlink:href="#DejaVuSans-20" transform="translate(529.589844 0)"/>
       <use xlink:href="#DejaVuSans-63" transform="translate(561.376953 0)"/>
       <use xlink:href="#DejaVuSans-61" transform="translate(616.357422 0)"/>
       <use xlink:href="#DejaVuSans-6e" transform="translate(677.636719 0)"/>
      </g>
     </g>
    </g>
    <g id="ytick_8">
     <g id="line2d_14">
      <path d="M 97.421875 241.064432 
L 705.481875 241.064432 
" clip-path="url(#p07197b34a8)" style="fill: none; stroke-dasharray: 2.59,1.12; stroke-dashoffset: 0; stroke: #e0e0e0; stroke-width: 0.7"/>
     </g>
     <g id="text_15">
      <!-- plastic bottle -->
      <g style="fill: #262626" transform="translate(25.34375 244.863651) scale(0.1 -0.1)">
       <use xlink:href="#DejaVuSans-70"/>
       <use xlink:href="#DejaVuSans-6c" transform="translate(63.476562 0)"/>
       <use xlink:href="#DejaVuSans-61" transform="translate(91.259766 0)"/>
       <use xlink:href="#DejaVuSans-73" transform="translate(152.539062 0)"/>
       <use xlink:href="#DejaVuSans-74" transform="translate(204.638672 0)"/>
       <use xlink:href="#DejaVuSans-69" transform="translate(243.847656 0)"/>
       <use xlink:href="#DejaVuSans-63" transform="translate(271.630859 0)"/>
       <use xlink:href="#DejaVuSans-20" transform="translate(326.611328 0)"/>
       <use xlink:href="#DejaVuSans-62" transform="translate(358.398438 0)"/>
       <use xlink:href="#DejaVuSans-6f" transform="translate(421.875 0)"/>
       <use xlink:href="#DejaVuSans-74" transform="translate(483.056641 0)"/>
       <use xlink:href="#DejaVuSans-74" transform="translate(522.265625 0)"/>
       <use xlink:href="#DejaVuSans-6c" transform="translate(561.474609 0)"/>
       <use xlink:href="#DejaVuSans-65" transform="translate(589.257812 0)"/>
      </g>
     </g>
    </g>
    <g id="ytick_9">
     <g id="line2d_15">
      <path d="M 97.421875 205.351364 
L 705.481875 205.351364 
" clip-path="url(#p07197b34a8)" style="fill: none; stroke-dasharray: 2.59,1.12; stroke-dashoffset: 0; stroke: #e0e0e0; stroke-width: 0.7"/>
     </g>
     <g id="text_16">
      <!-- plastic wrap -->
      <g style="fill: #262626" transform="translate(29.817188 209.150582) scale(0.1 -0.1)">
       <use xlink:href="#DejaVuSans-70"/>
       <use xlink:href="#DejaVuSans-6c" transform="translate(63.476562 0)"/>
       <use xlink:href="#DejaVuSans-61" transform="translate(91.259766 0)"/>
       <use xlink:href="#DejaVuSans-73" transform="translate(152.539062 0)"/>
       <use xlink:href="#DejaVuSans-74" transform="translate(204.638672 0)"/>
       <use xlink:href="#DejaVuSans-69" transform="translate(243.847656 0)"/>
       <use xlink:href="#DejaVuSans-63" transform="translate(271.630859 0)"/>
       <use xlink:href="#DejaVuSans-20" transform="translate(326.611328 0)"/>
       <use xlink:href="#DejaVuSans-77" transform="translate(358.398438 0)"/>
       <use xlink:href="#DejaVuSans-72" transform="translate(440.185547 0)"/>
       <use xlink:href="#DejaVuSans-61" transform="translate(481.298828 0)"/>
       <use xlink:href="#DejaVuSans-70" transform="translate(542.578125 0)"/>
      </g>
     </g>
    </g>
    <g id="ytick_10">
     <g id="line2d_16">
      <path d="M 97.421875 169.638295 
L 705.481875 169.638295 
" clip-path="url(#p07197b34a8)" style="fill: none; stroke-dasharray: 2.59,1.12; stroke-dashoffset: 0; stroke: #e0e0e0; stroke-width: 0.7"/>
     </g>
     <g id="text_17">
      <!-- plastic cup -->
      <g style="fill: #262626" transform="translate(36.398438 173.437514) scale(0.1 -0.1)">
       <use xlink:href="#DejaVuSans-70"/>
       <use xlink:href="#DejaVuSans-6c" transform="translate(63.476562 0)"/>
       <use xlink:href="#DejaVuSans-61" transform="translate(91.259766 0)"/>
       <use xlink:href="#DejaVuSans-73" transform="translate(152.539062 0)"/>
       <use xlink:href="#DejaVuSans-74" transform="translate(204.638672 0)"/>
       <use xlink:href="#DejaVuSans-69" transform="translate(243.847656 0)"/>
       <use xlink:href="#DejaVuSans-63" transform="translate(271.630859 0)"/>
       <use xlink:href="#DejaVuSans-20" transform="translate(326.611328 0)"/>
       <use xlink:href="#DejaVuSans-63" transform="translate(358.398438 0)"/>
       <use xlink:href="#DejaVuSans-75" transform="translate(413.378906 0)"/>
       <use xlink:href="#DejaVuSans-70" transform="translate(476.757812 0)"/>
      </g>
     </g>
    </g>
    <g id="ytick_11">
     <g id="line2d_17">
      <path d="M 97.421875 133.925227 
L 705.481875 133.925227 
" clip-path="url(#p07197b34a8)" style="fill: none; stroke-dasharray: 2.59,1.12; stroke-dashoffset: 0; stroke: #e0e0e0; stroke-width: 0.7"/>
     </g>
     <g id="text_18">
      <!-- wrapper -->
      <g style="fill: #262626" transform="translate(49.04375 137.724446) scale(0.1 -0.1)">
       <use xlink:href="#DejaVuSans-77"/>
       <use xlink:href="#DejaVuSans-72" transform="translate(81.787109 0)"/>
       <use xlink:href="#DejaVuSans-61" transform="translate(122.900391 0)"/>
       <use xlink:href="#DejaVuSans-70" transform="translate(184.179688 0)"/>
       <use xlink:href="#DejaVuSans-70" transform="translate(247.65625 0)"/>
       <use xlink:href="#DejaVuSans-65" transform="translate(311.132812 0)"/>
       <use xlink:href="#DejaVuSans-72" transform="translate(372.65625 0)"/>
      </g>
     </g>
    </g>
    <g id="ytick_12">
     <g id="line2d_18">
      <path d="M 97.421875 98.212159 
L 705.481875 98.212159 
" clip-path="url(#p07197b34a8)" style="fill: none; stroke-dasharray: 2.59,1.12; stroke-dashoffset: 0; stroke: #e0e0e0; stroke-width: 0.7"/>
     </g>
     <g id="text_19">
      <!-- plastic lid -->
      <g style="fill: #262626" transform="translate(42.678125 102.011378) scale(0.1 -0.1)">
       <use xlink:href="#DejaVuSans-70"/>
       <use xlink:href="#DejaVuSans-6c" transform="translate(63.476562 0)"/>
       <use xlink:href="#DejaVuSans-61" transform="translate(91.259766 0)"/>
       <use xlink:href="#DejaVuSans-73" transform="translate(152.539062 0)"/>
       <use xlink:href="#DejaVuSans-74" transform="translate(204.638672 0)"/>
       <use xlink:href="#DejaVuSans-69" transform="translate(243.847656 0)"/>
       <use xlink:href="#DejaVuSans-63" transform="translate(271.630859 0)"/>
       <use xlink:href="#DejaVuSans-20" transform="translate(326.611328 0)"/>
       <use xlink:href="#DejaVuSans-6c" transform="translate(358.398438 0)"/>
       <use xlink:href="#DejaVuSans-69" transform="translate(386.181641 0)"/>
       <use xlink:href="#DejaVuSans-64" transform="translate(413.964844 0)"/>
      </g>
     </g>
    </g>
    <g id="ytick_13">
     <g id="line2d_19">
      <path d="M 97.421875 62.499091 
L 705.481875 62.499091 
" clip-path="url(#p07197b34a8)" style="fill: none; stroke-dasharray: 2.59,1.12; stroke-dashoffset: 0; stroke: #e0e0e0; stroke-width: 0.7"/>
     </g>
     <g id="text_20">
      <!-- plastic container -->
      <g style="fill: #262626" transform="translate(7.2 66.29831) scale(0.1 -0.1)">
       <use xlink:href="#DejaVuSans-70"/>
       <use xlink:href="#DejaVuSans-6c" transform="translate(63.476562 0)"/>
       <use xlink:href="#DejaVuSans-61" transform="translate(91.259766 0)"/>
       <use xlink:href="#DejaVuSans-73" transform="translate(152.539062 0)"/>
       <use xlink:href="#DejaVuSans-74" transform="translate(204.638672 0)"/>
       <use xlink:href="#DejaVuSans-69" transform="translate(243.847656 0)"/>
       <use xlink:href="#DejaVuSans-63" transform="translate(271.630859 0)"/>
       <use xlink:href="#DejaVuSans-20" transform="translate(326.611328 0)"/>
       <use xlink:href="#DejaVuSans-63" transform="translate(358.398438 0)"/>
       <use xlink:href="#DejaVuSans-6f" transform="translate(413.378906 0)"/>
       <use xlink:href="#DejaVuSans-6e" transform="translate(474.560547 0)"/>
       <use xlink:href="#DejaVuSans-74" transform="translate(537.939453 0)"/>
       <use xlink:href="#DejaVuSans-61" transform="translate(577.148438 0)"/>
       <use xlink:href="#DejaVuSans-69" transform="translate(638.427734 0)"/>
       <use xlink:href="#DejaVuSans-6e" transform="translate(666.210938 0)"/>
       <use xlink:href="#DejaVuSans-65" transform="translate(729.589844 0)"/>
       <use xlink:href="#DejaVuSans-72" transform="translate(791.113281 0)"/>
      </g>
     </g>
    </g>
   </g>
   <g id="patch_3">
    <path d="M 326.915103 505.341136 
L 281.870764 505.341136 
L 281.870764 476.770682 
L 326.915103 476.770682 
z
" clip-path="url(#p07197b34a8)" style="fill: #87ceeb; stroke: #ffffff; stroke-linejoin: miter"/>
   </g>
   <g id="patch_4">
    <path d="M 326.915103 469.628068 
L 301.502279 469.628068 
L 301.502279 441.057614 
L 326.915103 441.057614 
z
" clip-path="url(#p07197b34a8)" style="fill: #87ceeb; stroke: #ffffff; stroke-linejoin: miter"/>
   </g>
   <g id="patch_5">
    <path d="M 326.915103 433.915 
L 322.795774 433.915 
L 322.795774 405.344545 
L 326.915103 405.344545 
z
" clip-path="url(#p07197b34a8)" style="fill: #87ceeb; stroke: #ffffff; stroke-linejoin: miter"/>
   </g>
   <g id="patch_6">
    <path d="M 326.915103 398.201932 
L 323.148635 398.201932 
L 323.148635 369.631477 
L 326.915103 369.631477 
z
" clip-path="url(#p07197b34a8)" style="fill: #87ceeb; stroke: #ffffff; stroke-linejoin: miter"/>
   </g>
   <g id="patch_7">
    <path d="M 326.915103 362.488864 
L 342.250862 362.488864 
L 342.250862 333.918409 
L 326.915103 333.918409 
z
" clip-path="url(#p07197b34a8)" style="fill: #87ceeb; stroke: #ffffff; stroke-linejoin: miter"/>
   </g>
   <g id="patch_8">
    <path d="M 326.915103 326.775795 
L 343.935805 326.775795 
L 343.935805 298.205341 
L 326.915103 298.205341 
z
" clip-path="url(#p07197b34a8)" style="fill: #87ceeb; stroke: #ffffff; stroke-linejoin: miter"/>
   </g>
   <g id="patch_9">
    <path d="M 326.915103 291.062727 
L 391.28491 291.062727 
L 391.28491 262.492273 
L 326.915103 262.492273 
z
" clip-path="url(#p07197b34a8)" style="fill: #87ceeb; stroke: #ffffff; stroke-linejoin: miter"/>
   </g>
   <g id="patch_10">
    <path d="M 326.915103 255.349659 
L 400.123081 255.349659 
L 400.123081 226.779205 
L 326.915103 226.779205 
z
" clip-path="url(#p07197b34a8)" style="fill: #87ceeb; stroke: #ffffff; stroke-linejoin: miter"/>
   </g>
   <g id="patch_11">
    <path d="M 326.915103 219.636591 
L 434.047883 219.636591 
L 434.047883 191.066136 
L 326.915103 191.066136 
z
" clip-path="url(#p07197b34a8)" style="fill: #87ceeb; stroke: #ffffff; stroke-linejoin: miter"/>
   </g>
   <g id="patch_12">
    <path d="M 326.915103 183.923523 
L 490.910122 183.923523 
L 490.910122 155.353068 
L 326.915103 155.353068 
z
" clip-path="url(#p07197b34a8)" style="fill: #87ceeb; stroke: #ffffff; stroke-linejoin: miter"/>
   </g>
   <g id="patch_13">
    <path d="M 326.915103 148.210455 
L 528.945928 148.210455 
L 528.945928 119.64 
L 326.915103 119.64 
z
" clip-path="url(#p07197b34a8)" style="fill: #87ceeb; stroke: #ffffff; stroke-linejoin: miter"/>
   </g>
   <g id="patch_14">
    <path d="M 326.915103 112.497386 
L 542.852293 112.497386 
L 542.852293 83.926932 
L 326.915103 83.926932 
z
" clip-path="url(#p07197b34a8)" style="fill: #87ceeb; stroke: #ffffff; stroke-linejoin: miter"/>
   </g>
   <g id="patch_15">
    <path d="M 326.915103 76.784318 
L 554.855974 76.784318 
L 554.855974 48.213864 
L 326.915103 48.213864 
z
" clip-path="url(#p07197b34a8)" style="fill: #87ceeb; stroke: #ffffff; stroke-linejoin: miter"/>
   </g>
   <g id="LineCollection_1">
    <path d="M 199.170918 491.055909 
L 364.57061 491.055909 
" clip-path="url(#p07197b34a8)" style="fill: none; stroke: #000000; stroke-width: 2"/>
    <path d="M 125.060966 455.342841 
L 477.943592 455.342841 
" clip-path="url(#p07197b34a8)" style="fill: none; stroke: #000000; stroke-width: 2"/>
    <path d="M 215.996177 419.629773 
L 429.595372 419.629773 
" clip-path="url(#p07197b34a8)" style="fill: none; stroke: #000000; stroke-width: 2"/>
    <path d="M 178.435286 383.916705 
L 467.861984 383.916705 
" clip-path="url(#p07197b34a8)" style="fill: none; stroke: #000000; stroke-width: 2"/>
    <path d="M 204.353453 348.203636 
L 480.148271 348.203636 
" clip-path="url(#p07197b34a8)" style="fill: none; stroke: #000000; stroke-width: 2"/>
    <path d="M 166.576051 312.490568 
L 521.295559 312.490568 
" clip-path="url(#p07197b34a8)" style="fill: none; stroke: #000000; stroke-width: 2"/>
    <path d="M 348.541447 276.7775 
L 434.028373 276.7775 
" clip-path="url(#p07197b34a8)" style="fill: none; stroke: #000000; stroke-width: 2"/>
    <path d="M 311.324753 241.064432 
L 488.92141 241.064432 
" clip-path="url(#p07197b34a8)" style="fill: none; stroke: #000000; stroke-width: 2"/>
    <path d="M 310.462577 205.351364 
L 557.63319 205.351364 
" clip-path="url(#p07197b34a8)" style="fill: none; stroke: #000000; stroke-width: 2"/>
    <path d="M 439.376361 169.638295 
L 542.443884 169.638295 
" clip-path="url(#p07197b34a8)" style="fill: none; stroke: #000000; stroke-width: 2"/>
    <path d="M 443.841762 133.925227 
L 614.050095 133.925227 
" clip-path="url(#p07197b34a8)" style="fill: none; stroke: #000000; stroke-width: 2"/>
    <path d="M 450.02691 98.212159 
L 635.677675 98.212159 
" clip-path="url(#p07197b34a8)" style="fill: none; stroke: #000000; stroke-width: 2"/>
    <path d="M 431.869163 62.499091 
L 677.842784 62.499091 
" clip-path="url(#p07197b34a8)" style="fill: none; stroke: #000000; stroke-width: 2"/>
   </g>
   <g id="line2d_20">
    <defs>
     <path id="mb68319ab07" d="M 0 3 
L 0 -3 
" style="stroke: #000000"/>
    </defs>
    <g clip-path="url(#p07197b34a8)">
     <use xlink:href="#mb68319ab07" x="199.170918" y="491.055909" style="stroke: #000000"/>
     <use xlink:href="#mb68319ab07" x="125.060966" y="455.342841" style="stroke: #000000"/>
     <use xlink:href="#mb68319ab07" x="215.996177" y="419.629773" style="stroke: #000000"/>
     <use xlink:href="#mb68319ab07" x="178.435286" y="383.916705" style="stroke: #000000"/>
     <use xlink:href="#mb68319ab07" x="204.353453" y="348.203636" style="stroke: #000000"/>
     <use xlink:href="#mb68319ab07" x="166.576051" y="312.490568" style="stroke: #000000"/>
     <use xlink:href="#mb68319ab07" x="348.541447" y="276.7775" style="stroke: #000000"/>
     <use xlink:href="#mb68319ab07" x="311.324753" y="241.064432" style="stroke: #000000"/>
     <use xlink:href="#mb68319ab07" x="310.462577" y="205.351364" style="stroke: #000000"/>
     <use xlink:href="#mb68319ab07" x="439.376361" y="169.638295" style="stroke: #000000"/>
     <use xlink:href="#mb68319ab07" x="443.841762" y="133.925227" style="stroke: #000000"/>
     <use xlink:href="#mb68319ab07" x="450.02691" y="98.212159" style="stroke: #000000"/>
     <use xlink:href="#mb68319ab07" x="431.869163" y="62.499091" style="stroke: #000000"/>
    </g>
   </g>
   <g id="line2d_21">
    <g clip-path="url(#p07197b34a8)">
     <use xlink:href="#mb68319ab07" x="364.57061" y="491.055909" style="stroke: #000000"/>
     <use xlink:href="#mb68319ab07" x="477.943592" y="455.342841" style="stroke: #000000"/>
     <use xlink:href="#mb68319ab07" x="429.595372" y="419.629773" style="stroke: #000000"/>
     <use xlink:href="#mb68319ab07" x="467.861984" y="383.916705" style="stroke: #000000"/>
     <use xlink:href="#mb68319ab07" x="480.148271" y="348.203636" style="stroke: #000000"/>
     <use xlink:href="#mb68319ab07" x="521.295559" y="312.490568" style="stroke: #000000"/>
     <use xlink:href="#mb68319ab07" x="434.028373" y="276.7775" style="stroke: #000000"/>
     <use xlink:href="#mb68319ab07" x="488.92141" y="241.064432" style="stroke: #000000"/>
     <use xlink:href="#mb68319ab07" x="557.63319" y="205.351364" style="stroke: #000000"/>
     <use xlink:href="#mb68319ab07" x="542.443884" y="169.638295" style="stroke: #000000"/>
     <use xlink:href="#mb68319ab07" x="614.050095" y="133.925227" style="stroke: #000000"/>
     <use xlink:href="#mb68319ab07" x="635.677675" y="98.212159" style="stroke: #000000"/>
     <use xlink:href="#mb68319ab07" x="677.842784" y="62.499091" style="stroke: #000000"/>
    </g>
   </g>
   <g id="line2d_22">
    <path d="M 326.915103 528.1975 
L 326.915103 25.3575 
" clip-path="url(#p07197b34a8)" style="fill: none; stroke: #000000; stroke-width: 0.8; stroke-linecap: round"/>
   </g>
   <g id="patch_16">
    <path d="M 97.421875 528.1975 
L 97.421875 25.3575 
" style="fill: none; stroke: #ffffff; stroke-width: 0.8; stroke-linejoin: miter; stroke-linecap: square"/>
   </g>
   <g id="patch_17">
    <path d="M 97.421875 528.1975 
L 705.481875 528.1975 
" style="fill: none; stroke: #ffffff; stroke-width: 0.8; stroke-linejoin: miter; stroke-linecap: square"/>
   </g>
   <g id="text_21">
    <!-- Influence of Item Correctness on Overall Correctness (Weighted) -->
    <g style="fill: #262626" transform="translate(143.161875 19.3575) scale(0.16 -0.16)">
     <defs>
      <path id="DejaVuSans-49" d="M 628 4666 
L 1259 4666 
L 1259 0 
L 628 0 
L 628 4666 
z
" transform="scale(0.015625)"/>
      <path id="DejaVuSans-4f" d="M 2522 4238 
Q 1834 4238 1429 3725 
Q 1025 3213 1025 2328 
Q 1025 1447 1429 934 
Q 1834 422 2522 422 
Q 3209 422 3611 934 
Q 4013 1447 4013 2328 
Q 4013 3213 3611 3725 
Q 3209 4238 2522 4238 
z
M 2522 4750 
Q 3503 4750 4090 4092 
Q 4678 3434 4678 2328 
Q 4678 1225 4090 567 
Q 3503 -91 2522 -91 
Q 1538 -91 948 565 
Q 359 1222 359 2328 
Q 359 3434 948 4092 
Q 1538 4750 2522 4750 
z
" transform="scale(0.015625)"/>
      <path id="DejaVuSans-76" d="M 191 3500 
L 800 3500 
L 1894 563 
L 2988 3500 
L 3597 3500 
L 2284 0 
L 1503 0 
L 191 3500 
z
" transform="scale(0.015625)"/>
      <path id="DejaVuSans-28" d="M 1984 4856 
Q 1566 4138 1362 3434 
Q 1159 2731 1159 2009 
Q 1159 1288 1364 580 
Q 1569 -128 1984 -844 
L 1484 -844 
Q 1016 -109 783 600 
Q 550 1309 550 2009 
Q 550 2706 781 3412 
Q 1013 4119 1484 4856 
L 1984 4856 
z
" transform="scale(0.015625)"/>
      <path id="DejaVuSans-29" d="M 513 4856 
L 1013 4856 
Q 1481 4119 1714 3412 
Q 1947 2706 1947 2009 
Q 1947 1309 1714 600 
Q 1481 -109 1013 -844 
L 513 -844 
Q 928 -128 1133 580 
Q 1338 1288 1338 2009 
Q 1338 2731 1133 3434 
Q 928 4138 513 4856 
z
" transform="scale(0.015625)"/>
     </defs>
     <use xlink:href="#DejaVuSans-49"/>
     <use xlink:href="#DejaVuSans-6e" transform="translate(29.492188 0)"/>
     <use xlink:href="#DejaVuSans-66" transform="translate(92.871094 0)"/>
     <use xlink:href="#DejaVuSans-6c" transform="translate(128.076172 0)"/>
     <use xlink:href="#DejaVuSans-75" transform="translate(155.859375 0)"/>
     <use xlink:href="#DejaVuSans-65" transform="translate(219.238281 0)"/>
     <use xlink:href="#DejaVuSans-6e" transform="translate(280.761719 0)"/>
     <use xlink:href="#DejaVuSans-63" transform="translate(344.140625 0)"/>
     <use xlink:href="#DejaVuSans-65" transform="translate(399.121094 0)"/>
     <use xlink:href="#DejaVuSans-20" transform="translate(460.644531 0)"/>
     <use xlink:href="#DejaVuSans-6f" transform="translate(492.431641 0)"/>
     <use xlink:href="#DejaVuSans-66" transform="translate(553.613281 0)"/>
     <use xlink:href="#DejaVuSans-20" transform="translate(588.818359 0)"/>
     <use xlink:href="#DejaVuSans-49" transform="translate(620.605469 0)"/>
     <use xlink:href="#DejaVuSans-74" transform="translate(650.097656 0)"/>
     <use xlink:href="#DejaVuSans-65" transform="translate(689.306641 0)"/>
     <use xlink:href="#DejaVuSans-6d" transform="translate(750.830078 0)"/>
     <use xlink:href="#DejaVuSans-20" transform="translate(848.242188 0)"/>
     <use xlink:href="#DejaVuSans-43" transform="translate(880.029297 0)"/>
     <use xlink:href="#DejaVuSans-6f" transform="translate(949.853516 0)"/>
     <use xlink:href="#DejaVuSans-72" transform="translate(1011.035156 0)"/>
     <use xlink:href="#DejaVuSans-72" transform="translate(1050.398438 0)"/>
     <use xlink:href="#DejaVuSans-65" transform="translate(1089.261719 0)"/>
     <use xlink:href="#DejaVuSans-63" transform="translate(1150.785156 0)"/>
     <use xlink:href="#DejaVuSans-74" transform="translate(1205.765625 0)"/>
     <use xlink:href="#DejaVuSans-6e" transform="translate(1244.974609 0)"/>
     <use xlink:href="#DejaVuSans-65" transform="translate(1308.353516 0)"/>
     <use xlink:href="#DejaVuSans-73" transform="translate(1369.876953 0)"/>
     <use xlink:href="#DejaVuSans-73" transform="translate(1421.976562 0)"/>
     <use xlink:href="#DejaVuSans-20" transform="translate(1474.076172 0)"/>
     <use xlink:href="#DejaVuSans-6f" transform="translate(1505.863281 0)"/>
     <use xlink:href="#DejaVuSans-6e" transform="translate(1567.044922 0)"/>
     <use xlink:href="#DejaVuSans-20" transform="translate(1630.423828 0)"/>
     <use xlink:href="#DejaVuSans-4f" transform="translate(1662.210938 0)"/>
     <use xlink:href="#DejaVuSans-76" transform="translate(1740.921875 0)"/>
     <use xlink:href="#DejaVuSans-65" transform="translate(1800.101562 0)"/>
     <use xlink:href="#DejaVuSans-72" transform="translate(1861.625 0)"/>
     <use xlink:href="#DejaVuSans-61" transform="translate(1902.738281 0)"/>
     <use xlink:href="#DejaVuSans-6c" transform="translate(1964.017578 0)"/>
     <use xlink:href="#DejaVuSans-6c" transform="translate(1991.800781 0)"/>
     <use xlink:href="#DejaVuSans-20" transform="translate(2019.583984 0)"/>
     <use xlink:href="#DejaVuSans-43" transform="translate(2051.371094 0)"/>
     <use xlink:href="#DejaVuSans-6f" transform="translate(2121.195312 0)"/>
     <use xlink:href="#DejaVuSans-72" transform="translate(2182.376953 0)"/>
     <use xlink:href="#DejaVuSans-72" transform="translate(2221.740234 0)"/>
     <use xlink:href="#DejaVuSans-65" transform="translate(2260.603516 0)"/>
     <use xlink:href="#DejaVuSans-63" transform="translate(2322.126953 0)"/>
     <use xlink:href="#DejaVuSans-74" transform="translate(2377.107422 0)"/>
     <use xlink:href="#DejaVuSans-6e" transform="translate(2416.316406 0)"/>
     <use xlink:href="#DejaVuSans-65" transform="translate(2479.695312 0)"/>
     <use xlink:href="#DejaVuSans-73" transform="translate(2541.21875 0)"/>
     <use xlink:href="#DejaVuSans-73" transform="translate(2593.318359 0)"/>
     <use xlink:href="#DejaVuSans-20" transform="translate(2645.417969 0)"/>
     <use xlink:href="#DejaVuSans-28" transform="translate(2677.205078 0)"/>
     <use xlink:href="#DejaVuSans-57" transform="translate(2716.21875 0)"/>
     <use xlink:href="#DejaVuSans-65" transform="translate(2809.220703 0)"/>
     <use xlink:href="#DejaVuSans-69" transform="translate(2870.744141 0)"/>
     <use xlink:href="#DejaVuSans-67" transform="translate(2898.527344 0)"/>
     <use xlink:href="#DejaVuSans-68" transform="translate(2962.003906 0)"/>
     <use xlink:href="#DejaVuSans-74" transform="translate(3025.382812 0)"/>
     <use xlink:href="#DejaVuSans-65" transform="translate(3064.591797 0)"/>
     <use xlink:href="#DejaVuSans-64" transform="translate(3126.115234 0)"/>
     <use xlink:href="#DejaVuSans-29" transform="translate(3189.591797 0)"/>
    </g>
   </g>
  </g>
 </g>
 <defs>
  <clipPath id="p07197b34a8">
   <rect x="97.421875" y="25.3575" width="608.06" height="502.84"/>
  </clipPath>
 </defs>
</svg>
