<?xml version="1.0" encoding="utf-8" standalone="no"?>
<!DOCTYPE svg PUBLIC "-//W3C//DTD SVG 1.1//EN"
  "http://www.w3.org/Graphics/SVG/1.1/DTD/svg11.dtd">
<svg xmlns:xlink="http://www.w3.org/1999/xlink" width="856.914375pt" height="424.750312pt" viewBox="0 0 856.914375 424.750312" xmlns="http://www.w3.org/2000/svg" version="1.1">
 <metadata>
  <rdf:RDF xmlns:dc="http://purl.org/dc/elements/1.1/" xmlns:cc="http://creativecommons.org/ns#" xmlns:rdf="http://www.w3.org/1999/02/22-rdf-syntax-ns#">
   <cc:Work>
    <dc:type rdf:resource="http://purl.org/dc/dcmitype/StillImage"/>
    <dc:date>2025-08-11T17:34:11.029488</dc:date>
    <dc:format>image/svg+xml</dc:format>
    <dc:creator>
     <cc:Agent>
      <dc:title>Matplotlib v3.10.3, https://matplotlib.org/</dc:title>
     </cc:Agent>
    </dc:creator>
   </cc:Work>
  </rdf:RDF>
 </metadata>
 <defs>
  <style type="text/css">*{stroke-linejoin: round; stroke-linecap: butt}</style>
 </defs>
 <g id="figure_1">
  <g id="patch_1">
   <path d="M 0 424.750312 
L 856.914375 424.750312 
L 856.914375 0 
L 0 0 
z
" style="fill: #ffffff"/>
  </g>
  <g id="axes_1">
   <g id="patch_2">
    <path d="M 44.684375 382.7725 
L 849.714375 382.7725 
L 849.714375 24.6525 
L 44.684375 24.6525 
z
" style="fill: #ffffff"/>
   </g>
   <g id="matplotlib.axis_1">
    <g id="xtick_1">
     <g id="line2d_1">
      <path d="M 73.808837 382.7725 
L 73.808837 24.6525 
" clip-path="url(#p4f8d19cae4)" style="fill: none; stroke-dasharray: 2.59,1.12; stroke-dashoffset: 0; stroke: #e0e0e0; stroke-width: 0.7"/>
     </g>
     <g id="text_1">
      <!-- 2025-01-15 -->
      <g style="fill: #262626" transform="translate(43.120712 398.361875) scale(0.12 -0.12)">
       <defs>
        <path id="ArialMT-32" d="M 3222 541 
L 3222 0 
L 194 0 
Q 188 203 259 391 
Q 375 700 629 1000 
Q 884 1300 1366 1694 
Q 2113 2306 2375 2664 
Q 2638 3022 2638 3341 
Q 2638 3675 2398 3904 
Q 2159 4134 1775 4134 
Q 1369 4134 1125 3890 
Q 881 3647 878 3216 
L 300 3275 
Q 359 3922 746 4261 
Q 1134 4600 1788 4600 
Q 2447 4600 2831 4234 
Q 3216 3869 3216 3328 
Q 3216 3053 3103 2787 
Q 2991 2522 2730 2228 
Q 2469 1934 1863 1422 
Q 1356 997 1212 845 
Q 1069 694 975 541 
L 3222 541 
z
" transform="scale(0.015625)"/>
        <path id="ArialMT-30" d="M 266 2259 
Q 266 3072 433 3567 
Q 600 4063 929 4331 
Q 1259 4600 1759 4600 
Q 2128 4600 2406 4451 
Q 2684 4303 2865 4023 
Q 3047 3744 3150 3342 
Q 3253 2941 3253 2259 
Q 3253 1453 3087 958 
Q 2922 463 2592 192 
Q 2263 -78 1759 -78 
Q 1097 -78 719 397 
Q 266 969 266 2259 
z
M 844 2259 
Q 844 1131 1108 757 
Q 1372 384 1759 384 
Q 2147 384 2411 759 
Q 2675 1134 2675 2259 
Q 2675 3391 2411 3762 
Q 2147 4134 1753 4134 
Q 1366 4134 1134 3806 
Q 844 3388 844 2259 
z
" transform="scale(0.015625)"/>
        <path id="ArialMT-35" d="M 266 1200 
L 856 1250 
Q 922 819 1161 601 
Q 1400 384 1738 384 
Q 2144 384 2425 690 
Q 2706 997 2706 1503 
Q 2706 1984 2436 2262 
Q 2166 2541 1728 2541 
Q 1456 2541 1237 2417 
Q 1019 2294 894 2097 
L 366 2166 
L 809 4519 
L 3088 4519 
L 3088 3981 
L 1259 3981 
L 1013 2750 
Q 1425 3038 1878 3038 
Q 2478 3038 2890 2622 
Q 3303 2206 3303 1553 
Q 3303 931 2941 478 
Q 2500 -78 1738 -78 
Q 1113 -78 717 272 
Q 322 622 266 1200 
z
" transform="scale(0.015625)"/>
        <path id="ArialMT-2d" d="M 203 1375 
L 203 1941 
L 1931 1941 
L 1931 1375 
L 203 1375 
z
" transform="scale(0.015625)"/>
        <path id="ArialMT-31" d="M 2384 0 
L 1822 0 
L 1822 3584 
Q 1619 3391 1289 3197 
Q 959 3003 697 2906 
L 697 3450 
Q 1169 3672 1522 3987 
Q 1875 4303 2022 4600 
L 2384 4600 
L 2384 0 
z
" transform="scale(0.015625)"/>
       </defs>
       <use xlink:href="#ArialMT-32"/>
       <use xlink:href="#ArialMT-30" transform="translate(55.615234 0)"/>
       <use xlink:href="#ArialMT-32" transform="translate(111.230469 0)"/>
       <use xlink:href="#ArialMT-35" transform="translate(166.845703 0)"/>
       <use xlink:href="#ArialMT-2d" transform="translate(222.460938 0)"/>
       <use xlink:href="#ArialMT-30" transform="translate(255.761719 0)"/>
       <use xlink:href="#ArialMT-31" transform="translate(311.376953 0)"/>
       <use xlink:href="#ArialMT-2d" transform="translate(366.992188 0)"/>
       <use xlink:href="#ArialMT-31" transform="translate(400.292969 0)"/>
       <use xlink:href="#ArialMT-35" transform="translate(455.908203 0)"/>
      </g>
     </g>
    </g>
    <g id="xtick_2">
     <g id="line2d_2">
      <path d="M 200.76162 382.7725 
L 200.76162 24.6525 
" clip-path="url(#p4f8d19cae4)" style="fill: none; stroke-dasharray: 2.59,1.12; stroke-dashoffset: 0; stroke: #e0e0e0; stroke-width: 0.7"/>
     </g>
     <g id="text_2">
      <!-- 2025-02-01 -->
      <g style="fill: #262626" transform="translate(170.073495 398.361875) scale(0.12 -0.12)">
       <use xlink:href="#ArialMT-32"/>
       <use xlink:href="#ArialMT-30" transform="translate(55.615234 0)"/>
       <use xlink:href="#ArialMT-32" transform="translate(111.230469 0)"/>
       <use xlink:href="#ArialMT-35" transform="translate(166.845703 0)"/>
       <use xlink:href="#ArialMT-2d" transform="translate(222.460938 0)"/>
       <use xlink:href="#ArialMT-30" transform="translate(255.761719 0)"/>
       <use xlink:href="#ArialMT-32" transform="translate(311.376953 0)"/>
       <use xlink:href="#ArialMT-2d" transform="translate(366.992188 0)"/>
       <use xlink:href="#ArialMT-30" transform="translate(400.292969 0)"/>
       <use xlink:href="#ArialMT-31" transform="translate(455.908203 0)"/>
      </g>
     </g>
    </g>
    <g id="xtick_3">
     <g id="line2d_3">
      <path d="M 305.310971 382.7725 
L 305.310971 24.6525 
" clip-path="url(#p4f8d19cae4)" style="fill: none; stroke-dasharray: 2.59,1.12; stroke-dashoffset: 0; stroke: #e0e0e0; stroke-width: 0.7"/>
     </g>
     <g id="text_3">
      <!-- 2025-02-15 -->
      <g style="fill: #262626" transform="translate(274.622846 398.361875) scale(0.12 -0.12)">
       <use xlink:href="#ArialMT-32"/>
       <use xlink:href="#ArialMT-30" transform="translate(55.615234 0)"/>
       <use xlink:href="#ArialMT-32" transform="translate(111.230469 0)"/>
       <use xlink:href="#ArialMT-35" transform="translate(166.845703 0)"/>
       <use xlink:href="#ArialMT-2d" transform="translate(222.460938 0)"/>
       <use xlink:href="#ArialMT-30" transform="translate(255.761719 0)"/>
       <use xlink:href="#ArialMT-32" transform="translate(311.376953 0)"/>
       <use xlink:href="#ArialMT-2d" transform="translate(366.992188 0)"/>
       <use xlink:href="#ArialMT-31" transform="translate(400.292969 0)"/>
       <use xlink:href="#ArialMT-35" transform="translate(455.908203 0)"/>
      </g>
     </g>
    </g>
    <g id="xtick_4">
     <g id="line2d_4">
      <path d="M 409.860321 382.7725 
L 409.860321 24.6525 
" clip-path="url(#p4f8d19cae4)" style="fill: none; stroke-dasharray: 2.59,1.12; stroke-dashoffset: 0; stroke: #e0e0e0; stroke-width: 0.7"/>
     </g>
     <g id="text_4">
      <!-- 2025-03-01 -->
      <g style="fill: #262626" transform="translate(379.172196 398.361875) scale(0.12 -0.12)">
       <defs>
        <path id="ArialMT-33" d="M 269 1209 
L 831 1284 
Q 928 806 1161 595 
Q 1394 384 1728 384 
Q 2125 384 2398 659 
Q 2672 934 2672 1341 
Q 2672 1728 2419 1979 
Q 2166 2231 1775 2231 
Q 1616 2231 1378 2169 
L 1441 2663 
Q 1497 2656 1531 2656 
Q 1891 2656 2178 2843 
Q 2466 3031 2466 3422 
Q 2466 3731 2256 3934 
Q 2047 4138 1716 4138 
Q 1388 4138 1169 3931 
Q 950 3725 888 3313 
L 325 3413 
Q 428 3978 793 4289 
Q 1159 4600 1703 4600 
Q 2078 4600 2393 4439 
Q 2709 4278 2876 4000 
Q 3044 3722 3044 3409 
Q 3044 3113 2884 2869 
Q 2725 2625 2413 2481 
Q 2819 2388 3044 2092 
Q 3269 1797 3269 1353 
Q 3269 753 2831 336 
Q 2394 -81 1725 -81 
Q 1122 -81 723 278 
Q 325 638 269 1209 
z
" transform="scale(0.015625)"/>
       </defs>
       <use xlink:href="#ArialMT-32"/>
       <use xlink:href="#ArialMT-30" transform="translate(55.615234 0)"/>
       <use xlink:href="#ArialMT-32" transform="translate(111.230469 0)"/>
       <use xlink:href="#ArialMT-35" transform="translate(166.845703 0)"/>
       <use xlink:href="#ArialMT-2d" transform="translate(222.460938 0)"/>
       <use xlink:href="#ArialMT-30" transform="translate(255.761719 0)"/>
       <use xlink:href="#ArialMT-33" transform="translate(311.376953 0)"/>
       <use xlink:href="#ArialMT-2d" transform="translate(366.992188 0)"/>
       <use xlink:href="#ArialMT-30" transform="translate(400.292969 0)"/>
       <use xlink:href="#ArialMT-31" transform="translate(455.908203 0)"/>
      </g>
     </g>
    </g>
    <g id="xtick_5">
     <g id="line2d_5">
      <path d="M 514.409672 382.7725 
L 514.409672 24.6525 
" clip-path="url(#p4f8d19cae4)" style="fill: none; stroke-dasharray: 2.59,1.12; stroke-dashoffset: 0; stroke: #e0e0e0; stroke-width: 0.7"/>
     </g>
     <g id="text_5">
      <!-- 2025-03-15 -->
      <g style="fill: #262626" transform="translate(483.721547 398.361875) scale(0.12 -0.12)">
       <use xlink:href="#ArialMT-32"/>
       <use xlink:href="#ArialMT-30" transform="translate(55.615234 0)"/>
       <use xlink:href="#ArialMT-32" transform="translate(111.230469 0)"/>
       <use xlink:href="#ArialMT-35" transform="translate(166.845703 0)"/>
       <use xlink:href="#ArialMT-2d" transform="translate(222.460938 0)"/>
       <use xlink:href="#ArialMT-30" transform="translate(255.761719 0)"/>
       <use xlink:href="#ArialMT-33" transform="translate(311.376953 0)"/>
       <use xlink:href="#ArialMT-2d" transform="translate(366.992188 0)"/>
       <use xlink:href="#ArialMT-31" transform="translate(400.292969 0)"/>
       <use xlink:href="#ArialMT-35" transform="translate(455.908203 0)"/>
      </g>
     </g>
    </g>
    <g id="xtick_6">
     <g id="line2d_6">
      <path d="M 641.362455 382.7725 
L 641.362455 24.6525 
" clip-path="url(#p4f8d19cae4)" style="fill: none; stroke-dasharray: 2.59,1.12; stroke-dashoffset: 0; stroke: #e0e0e0; stroke-width: 0.7"/>
     </g>
     <g id="text_6">
      <!-- 2025-04-01 -->
      <g style="fill: #262626" transform="translate(610.67433 398.361875) scale(0.12 -0.12)">
       <defs>
        <path id="ArialMT-34" d="M 2069 0 
L 2069 1097 
L 81 1097 
L 81 1613 
L 2172 4581 
L 2631 4581 
L 2631 1613 
L 3250 1613 
L 3250 1097 
L 2631 1097 
L 2631 0 
L 2069 0 
z
M 2069 1613 
L 2069 3678 
L 634 1613 
L 2069 1613 
z
" transform="scale(0.015625)"/>
       </defs>
       <use xlink:href="#ArialMT-32"/>
       <use xlink:href="#ArialMT-30" transform="translate(55.615234 0)"/>
       <use xlink:href="#ArialMT-32" transform="translate(111.230469 0)"/>
       <use xlink:href="#ArialMT-35" transform="translate(166.845703 0)"/>
       <use xlink:href="#ArialMT-2d" transform="translate(222.460938 0)"/>
       <use xlink:href="#ArialMT-30" transform="translate(255.761719 0)"/>
       <use xlink:href="#ArialMT-34" transform="translate(311.376953 0)"/>
       <use xlink:href="#ArialMT-2d" transform="translate(366.992188 0)"/>
       <use xlink:href="#ArialMT-30" transform="translate(400.292969 0)"/>
       <use xlink:href="#ArialMT-31" transform="translate(455.908203 0)"/>
      </g>
     </g>
    </g>
    <g id="xtick_7">
     <g id="line2d_7">
      <path d="M 745.911805 382.7725 
L 745.911805 24.6525 
" clip-path="url(#p4f8d19cae4)" style="fill: none; stroke-dasharray: 2.59,1.12; stroke-dashoffset: 0; stroke: #e0e0e0; stroke-width: 0.7"/>
     </g>
     <g id="text_7">
      <!-- 2025-04-15 -->
      <g style="fill: #262626" transform="translate(715.22368 398.361875) scale(0.12 -0.12)">
       <use xlink:href="#ArialMT-32"/>
       <use xlink:href="#ArialMT-30" transform="translate(55.615234 0)"/>
       <use xlink:href="#ArialMT-32" transform="translate(111.230469 0)"/>
       <use xlink:href="#ArialMT-35" transform="translate(166.845703 0)"/>
       <use xlink:href="#ArialMT-2d" transform="translate(222.460938 0)"/>
       <use xlink:href="#ArialMT-30" transform="translate(255.761719 0)"/>
       <use xlink:href="#ArialMT-34" transform="translate(311.376953 0)"/>
       <use xlink:href="#ArialMT-2d" transform="translate(366.992188 0)"/>
       <use xlink:href="#ArialMT-31" transform="translate(400.292969 0)"/>
       <use xlink:href="#ArialMT-35" transform="translate(455.908203 0)"/>
      </g>
     </g>
    </g>
    <g id="text_8">
     <!-- Date -->
     <g style="fill: #262626" transform="translate(432.414062 414.767812) scale(0.14 -0.14)">
      <defs>
       <path id="ArialMT-44" d="M 494 0 
L 494 4581 
L 2072 4581 
Q 2606 4581 2888 4516 
Q 3281 4425 3559 4188 
Q 3922 3881 4101 3404 
Q 4281 2928 4281 2316 
Q 4281 1794 4159 1391 
Q 4038 988 3847 723 
Q 3656 459 3429 307 
Q 3203 156 2883 78 
Q 2563 0 2147 0 
L 494 0 
z
M 1100 541 
L 2078 541 
Q 2531 541 2789 625 
Q 3047 709 3200 863 
Q 3416 1078 3536 1442 
Q 3656 1806 3656 2325 
Q 3656 3044 3420 3430 
Q 3184 3816 2847 3947 
Q 2603 4041 2063 4041 
L 1100 4041 
L 1100 541 
z
" transform="scale(0.015625)"/>
       <path id="ArialMT-61" d="M 2588 409 
Q 2275 144 1986 34 
Q 1697 -75 1366 -75 
Q 819 -75 525 192 
Q 231 459 231 875 
Q 231 1119 342 1320 
Q 453 1522 633 1644 
Q 813 1766 1038 1828 
Q 1203 1872 1538 1913 
Q 2219 1994 2541 2106 
Q 2544 2222 2544 2253 
Q 2544 2597 2384 2738 
Q 2169 2928 1744 2928 
Q 1347 2928 1158 2789 
Q 969 2650 878 2297 
L 328 2372 
Q 403 2725 575 2942 
Q 747 3159 1072 3276 
Q 1397 3394 1825 3394 
Q 2250 3394 2515 3294 
Q 2781 3194 2906 3042 
Q 3031 2891 3081 2659 
Q 3109 2516 3109 2141 
L 3109 1391 
Q 3109 606 3145 398 
Q 3181 191 3288 0 
L 2700 0 
Q 2613 175 2588 409 
z
M 2541 1666 
Q 2234 1541 1622 1453 
Q 1275 1403 1131 1340 
Q 988 1278 909 1158 
Q 831 1038 831 891 
Q 831 666 1001 516 
Q 1172 366 1500 366 
Q 1825 366 2078 508 
Q 2331 650 2450 897 
Q 2541 1088 2541 1459 
L 2541 1666 
z
" transform="scale(0.015625)"/>
       <path id="ArialMT-74" d="M 1650 503 
L 1731 6 
Q 1494 -44 1306 -44 
Q 1000 -44 831 53 
Q 663 150 594 308 
Q 525 466 525 972 
L 525 2881 
L 113 2881 
L 113 3319 
L 525 3319 
L 525 4141 
L 1084 4478 
L 1084 3319 
L 1650 3319 
L 1650 2881 
L 1084 2881 
L 1084 941 
Q 1084 700 1114 631 
Q 1144 563 1211 522 
Q 1278 481 1403 481 
Q 1497 481 1650 503 
z
" transform="scale(0.015625)"/>
       <path id="ArialMT-65" d="M 2694 1069 
L 3275 997 
Q 3138 488 2766 206 
Q 2394 -75 1816 -75 
Q 1088 -75 661 373 
Q 234 822 234 1631 
Q 234 2469 665 2931 
Q 1097 3394 1784 3394 
Q 2450 3394 2872 2941 
Q 3294 2488 3294 1666 
Q 3294 1616 3291 1516 
L 816 1516 
Q 847 969 1125 678 
Q 1403 388 1819 388 
Q 2128 388 2347 550 
Q 2566 713 2694 1069 
z
M 847 1978 
L 2700 1978 
Q 2663 2397 2488 2606 
Q 2219 2931 1791 2931 
Q 1403 2931 1139 2672 
Q 875 2413 847 1978 
z
" transform="scale(0.015625)"/>
      </defs>
      <use xlink:href="#ArialMT-44"/>
      <use xlink:href="#ArialMT-61" transform="translate(72.216797 0)"/>
      <use xlink:href="#ArialMT-74" transform="translate(127.832031 0)"/>
      <use xlink:href="#ArialMT-65" transform="translate(155.615234 0)"/>
     </g>
    </g>
   </g>
   <g id="matplotlib.axis_2">
    <g id="ytick_1">
     <g id="line2d_8">
      <path d="M 44.684375 358.561803 
L 849.714375 358.561803 
" clip-path="url(#p4f8d19cae4)" style="fill: none; stroke-dasharray: 2.59,1.12; stroke-dashoffset: 0; stroke: #e0e0e0; stroke-width: 0.7"/>
     </g>
     <g id="text_9">
      <!-- 40 -->
      <g style="fill: #262626" transform="translate(24.338125 362.856491) scale(0.12 -0.12)">
       <use xlink:href="#ArialMT-34"/>
       <use xlink:href="#ArialMT-30" transform="translate(55.615234 0)"/>
      </g>
     </g>
    </g>
    <g id="ytick_2">
     <g id="line2d_9">
      <path d="M 44.684375 297.084812 
L 849.714375 297.084812 
" clip-path="url(#p4f8d19cae4)" style="fill: none; stroke-dasharray: 2.59,1.12; stroke-dashoffset: 0; stroke: #e0e0e0; stroke-width: 0.7"/>
     </g>
     <g id="text_10">
      <!-- 50 -->
      <g style="fill: #262626" transform="translate(24.338125 301.379499) scale(0.12 -0.12)">
       <use xlink:href="#ArialMT-35"/>
       <use xlink:href="#ArialMT-30" transform="translate(55.615234 0)"/>
      </g>
     </g>
    </g>
    <g id="ytick_3">
     <g id="line2d_10">
      <path d="M 44.684375 235.607821 
L 849.714375 235.607821 
" clip-path="url(#p4f8d19cae4)" style="fill: none; stroke-dasharray: 2.59,1.12; stroke-dashoffset: 0; stroke: #e0e0e0; stroke-width: 0.7"/>
     </g>
     <g id="text_11">
      <!-- 60 -->
      <g style="fill: #262626" transform="translate(24.338125 239.902508) scale(0.12 -0.12)">
       <defs>
        <path id="ArialMT-36" d="M 3184 3459 
L 2625 3416 
Q 2550 3747 2413 3897 
Q 2184 4138 1850 4138 
Q 1581 4138 1378 3988 
Q 1113 3794 959 3422 
Q 806 3050 800 2363 
Q 1003 2672 1297 2822 
Q 1591 2972 1913 2972 
Q 2475 2972 2870 2558 
Q 3266 2144 3266 1488 
Q 3266 1056 3080 686 
Q 2894 316 2569 119 
Q 2244 -78 1831 -78 
Q 1128 -78 684 439 
Q 241 956 241 2144 
Q 241 3472 731 4075 
Q 1159 4600 1884 4600 
Q 2425 4600 2770 4297 
Q 3116 3994 3184 3459 
z
M 888 1484 
Q 888 1194 1011 928 
Q 1134 663 1356 523 
Q 1578 384 1822 384 
Q 2178 384 2434 671 
Q 2691 959 2691 1453 
Q 2691 1928 2437 2201 
Q 2184 2475 1800 2475 
Q 1419 2475 1153 2201 
Q 888 1928 888 1484 
z
" transform="scale(0.015625)"/>
       </defs>
       <use xlink:href="#ArialMT-36"/>
       <use xlink:href="#ArialMT-30" transform="translate(55.615234 0)"/>
      </g>
     </g>
    </g>
    <g id="ytick_4">
     <g id="line2d_11">
      <path d="M 44.684375 174.130829 
L 849.714375 174.130829 
" clip-path="url(#p4f8d19cae4)" style="fill: none; stroke-dasharray: 2.59,1.12; stroke-dashoffset: 0; stroke: #e0e0e0; stroke-width: 0.7"/>
     </g>
     <g id="text_12">
      <!-- 70 -->
      <g style="fill: #262626" transform="translate(24.338125 178.425517) scale(0.12 -0.12)">
       <defs>
        <path id="ArialMT-37" d="M 303 3981 
L 303 4522 
L 3269 4522 
L 3269 4084 
Q 2831 3619 2401 2847 
Q 1972 2075 1738 1259 
Q 1569 684 1522 0 
L 944 0 
Q 953 541 1156 1306 
Q 1359 2072 1739 2783 
Q 2119 3494 2547 3981 
L 303 3981 
z
" transform="scale(0.015625)"/>
       </defs>
       <use xlink:href="#ArialMT-37"/>
       <use xlink:href="#ArialMT-30" transform="translate(55.615234 0)"/>
      </g>
     </g>
    </g>
    <g id="ytick_5">
     <g id="line2d_12">
      <path d="M 44.684375 112.653838 
L 849.714375 112.653838 
" clip-path="url(#p4f8d19cae4)" style="fill: none; stroke-dasharray: 2.59,1.12; stroke-dashoffset: 0; stroke: #e0e0e0; stroke-width: 0.7"/>
     </g>
     <g id="text_13">
      <!-- 80 -->
      <g style="fill: #262626" transform="translate(24.338125 116.948526) scale(0.12 -0.12)">
       <defs>
        <path id="ArialMT-38" d="M 1131 2484 
Q 781 2613 612 2850 
Q 444 3088 444 3419 
Q 444 3919 803 4259 
Q 1163 4600 1759 4600 
Q 2359 4600 2725 4251 
Q 3091 3903 3091 3403 
Q 3091 3084 2923 2848 
Q 2756 2613 2416 2484 
Q 2838 2347 3058 2040 
Q 3278 1734 3278 1309 
Q 3278 722 2862 322 
Q 2447 -78 1769 -78 
Q 1091 -78 675 323 
Q 259 725 259 1325 
Q 259 1772 486 2073 
Q 713 2375 1131 2484 
z
M 1019 3438 
Q 1019 3113 1228 2906 
Q 1438 2700 1772 2700 
Q 2097 2700 2305 2904 
Q 2513 3109 2513 3406 
Q 2513 3716 2298 3927 
Q 2084 4138 1766 4138 
Q 1444 4138 1231 3931 
Q 1019 3725 1019 3438 
z
M 838 1322 
Q 838 1081 952 856 
Q 1066 631 1291 507 
Q 1516 384 1775 384 
Q 2178 384 2440 643 
Q 2703 903 2703 1303 
Q 2703 1709 2433 1975 
Q 2163 2241 1756 2241 
Q 1359 2241 1098 1978 
Q 838 1716 838 1322 
z
" transform="scale(0.015625)"/>
       </defs>
       <use xlink:href="#ArialMT-38"/>
       <use xlink:href="#ArialMT-30" transform="translate(55.615234 0)"/>
      </g>
     </g>
    </g>
    <g id="ytick_6">
     <g id="line2d_13">
      <path d="M 44.684375 51.176847 
L 849.714375 51.176847 
" clip-path="url(#p4f8d19cae4)" style="fill: none; stroke-dasharray: 2.59,1.12; stroke-dashoffset: 0; stroke: #e0e0e0; stroke-width: 0.7"/>
     </g>
     <g id="text_14">
      <!-- 90 -->
      <g style="fill: #262626" transform="translate(24.338125 55.471535) scale(0.12 -0.12)">
       <defs>
        <path id="ArialMT-39" d="M 350 1059 
L 891 1109 
Q 959 728 1153 556 
Q 1347 384 1650 384 
Q 1909 384 2104 503 
Q 2300 622 2425 820 
Q 2550 1019 2634 1356 
Q 2719 1694 2719 2044 
Q 2719 2081 2716 2156 
Q 2547 1888 2255 1720 
Q 1963 1553 1622 1553 
Q 1053 1553 659 1965 
Q 266 2378 266 3053 
Q 266 3750 677 4175 
Q 1088 4600 1706 4600 
Q 2153 4600 2523 4359 
Q 2894 4119 3086 3673 
Q 3278 3228 3278 2384 
Q 3278 1506 3087 986 
Q 2897 466 2520 194 
Q 2144 -78 1638 -78 
Q 1100 -78 759 220 
Q 419 519 350 1059 
z
M 2653 3081 
Q 2653 3566 2395 3850 
Q 2138 4134 1775 4134 
Q 1400 4134 1122 3828 
Q 844 3522 844 3034 
Q 844 2597 1108 2323 
Q 1372 2050 1759 2050 
Q 2150 2050 2401 2323 
Q 2653 2597 2653 3081 
z
" transform="scale(0.015625)"/>
       </defs>
       <use xlink:href="#ArialMT-39"/>
       <use xlink:href="#ArialMT-30" transform="translate(55.615234 0)"/>
      </g>
     </g>
    </g>
    <g id="text_15">
     <!-- Correctness (%) -->
     <g style="fill: #262626" transform="translate(17.391562 254.275469) rotate(-90) scale(0.14 -0.14)">
      <defs>
       <path id="ArialMT-43" d="M 3763 1606 
L 4369 1453 
Q 4178 706 3683 314 
Q 3188 -78 2472 -78 
Q 1731 -78 1267 223 
Q 803 525 561 1097 
Q 319 1669 319 2325 
Q 319 3041 592 3573 
Q 866 4106 1370 4382 
Q 1875 4659 2481 4659 
Q 3169 4659 3637 4309 
Q 4106 3959 4291 3325 
L 3694 3184 
Q 3534 3684 3231 3912 
Q 2928 4141 2469 4141 
Q 1941 4141 1586 3887 
Q 1231 3634 1087 3207 
Q 944 2781 944 2328 
Q 944 1744 1114 1308 
Q 1284 872 1643 656 
Q 2003 441 2422 441 
Q 2931 441 3284 734 
Q 3638 1028 3763 1606 
z
" transform="scale(0.015625)"/>
       <path id="ArialMT-6f" d="M 213 1659 
Q 213 2581 725 3025 
Q 1153 3394 1769 3394 
Q 2453 3394 2887 2945 
Q 3322 2497 3322 1706 
Q 3322 1066 3130 698 
Q 2938 331 2570 128 
Q 2203 -75 1769 -75 
Q 1072 -75 642 372 
Q 213 819 213 1659 
z
M 791 1659 
Q 791 1022 1069 705 
Q 1347 388 1769 388 
Q 2188 388 2466 706 
Q 2744 1025 2744 1678 
Q 2744 2294 2464 2611 
Q 2184 2928 1769 2928 
Q 1347 2928 1069 2612 
Q 791 2297 791 1659 
z
" transform="scale(0.015625)"/>
       <path id="ArialMT-72" d="M 416 0 
L 416 3319 
L 922 3319 
L 922 2816 
Q 1116 3169 1280 3281 
Q 1444 3394 1641 3394 
Q 1925 3394 2219 3213 
L 2025 2691 
Q 1819 2813 1613 2813 
Q 1428 2813 1281 2702 
Q 1134 2591 1072 2394 
Q 978 2094 978 1738 
L 978 0 
L 416 0 
z
" transform="scale(0.015625)"/>
       <path id="ArialMT-63" d="M 2588 1216 
L 3141 1144 
Q 3050 572 2676 248 
Q 2303 -75 1759 -75 
Q 1078 -75 664 370 
Q 250 816 250 1647 
Q 250 2184 428 2587 
Q 606 2991 970 3192 
Q 1334 3394 1763 3394 
Q 2303 3394 2647 3120 
Q 2991 2847 3088 2344 
L 2541 2259 
Q 2463 2594 2264 2762 
Q 2066 2931 1784 2931 
Q 1359 2931 1093 2626 
Q 828 2322 828 1663 
Q 828 994 1084 691 
Q 1341 388 1753 388 
Q 2084 388 2306 591 
Q 2528 794 2588 1216 
z
" transform="scale(0.015625)"/>
       <path id="ArialMT-6e" d="M 422 0 
L 422 3319 
L 928 3319 
L 928 2847 
Q 1294 3394 1984 3394 
Q 2284 3394 2536 3286 
Q 2788 3178 2913 3003 
Q 3038 2828 3088 2588 
Q 3119 2431 3119 2041 
L 3119 0 
L 2556 0 
L 2556 2019 
Q 2556 2363 2490 2533 
Q 2425 2703 2258 2804 
Q 2091 2906 1866 2906 
Q 1506 2906 1245 2678 
Q 984 2450 984 1813 
L 984 0 
L 422 0 
z
" transform="scale(0.015625)"/>
       <path id="ArialMT-73" d="M 197 991 
L 753 1078 
Q 800 744 1014 566 
Q 1228 388 1613 388 
Q 2000 388 2187 545 
Q 2375 703 2375 916 
Q 2375 1106 2209 1216 
Q 2094 1291 1634 1406 
Q 1016 1563 777 1677 
Q 538 1791 414 1992 
Q 291 2194 291 2438 
Q 291 2659 392 2848 
Q 494 3038 669 3163 
Q 800 3259 1026 3326 
Q 1253 3394 1513 3394 
Q 1903 3394 2198 3281 
Q 2494 3169 2634 2976 
Q 2775 2784 2828 2463 
L 2278 2388 
Q 2241 2644 2061 2787 
Q 1881 2931 1553 2931 
Q 1166 2931 1000 2803 
Q 834 2675 834 2503 
Q 834 2394 903 2306 
Q 972 2216 1119 2156 
Q 1203 2125 1616 2013 
Q 2213 1853 2448 1751 
Q 2684 1650 2818 1456 
Q 2953 1263 2953 975 
Q 2953 694 2789 445 
Q 2625 197 2315 61 
Q 2006 -75 1616 -75 
Q 969 -75 630 194 
Q 291 463 197 991 
z
" transform="scale(0.015625)"/>
       <path id="ArialMT-20" transform="scale(0.015625)"/>
       <path id="ArialMT-28" d="M 1497 -1347 
Q 1031 -759 709 28 
Q 388 816 388 1659 
Q 388 2403 628 3084 
Q 909 3875 1497 4659 
L 1900 4659 
Q 1522 4009 1400 3731 
Q 1209 3300 1100 2831 
Q 966 2247 966 1656 
Q 966 153 1900 -1347 
L 1497 -1347 
z
" transform="scale(0.015625)"/>
       <path id="ArialMT-25" d="M 372 3481 
Q 372 3972 619 4315 
Q 866 4659 1334 4659 
Q 1766 4659 2048 4351 
Q 2331 4044 2331 3447 
Q 2331 2866 2045 2552 
Q 1759 2238 1341 2238 
Q 925 2238 648 2547 
Q 372 2856 372 3481 
z
M 1350 4272 
Q 1141 4272 1002 4090 
Q 863 3909 863 3425 
Q 863 2984 1003 2804 
Q 1144 2625 1350 2625 
Q 1563 2625 1702 2806 
Q 1841 2988 1841 3469 
Q 1841 3913 1700 4092 
Q 1559 4272 1350 4272 
z
M 1353 -169 
L 3859 4659 
L 4316 4659 
L 1819 -169 
L 1353 -169 
z
M 3334 1075 
Q 3334 1569 3581 1911 
Q 3828 2253 4300 2253 
Q 4731 2253 5014 1945 
Q 5297 1638 5297 1041 
Q 5297 459 5011 145 
Q 4725 -169 4303 -169 
Q 3888 -169 3611 142 
Q 3334 453 3334 1075 
z
M 4316 1866 
Q 4103 1866 3964 1684 
Q 3825 1503 3825 1019 
Q 3825 581 3965 400 
Q 4106 219 4313 219 
Q 4528 219 4667 400 
Q 4806 581 4806 1063 
Q 4806 1506 4665 1686 
Q 4525 1866 4316 1866 
z
" transform="scale(0.015625)"/>
       <path id="ArialMT-29" d="M 791 -1347 
L 388 -1347 
Q 1322 153 1322 1656 
Q 1322 2244 1188 2822 
Q 1081 3291 891 3722 
Q 769 4003 388 4659 
L 791 4659 
Q 1378 3875 1659 3084 
Q 1900 2403 1900 1659 
Q 1900 816 1576 28 
Q 1253 -759 791 -1347 
z
" transform="scale(0.015625)"/>
      </defs>
      <use xlink:href="#ArialMT-43"/>
      <use xlink:href="#ArialMT-6f" transform="translate(72.216797 0)"/>
      <use xlink:href="#ArialMT-72" transform="translate(127.832031 0)"/>
      <use xlink:href="#ArialMT-72" transform="translate(161.132812 0)"/>
      <use xlink:href="#ArialMT-65" transform="translate(194.433594 0)"/>
      <use xlink:href="#ArialMT-63" transform="translate(250.048828 0)"/>
      <use xlink:href="#ArialMT-74" transform="translate(300.048828 0)"/>
      <use xlink:href="#ArialMT-6e" transform="translate(327.832031 0)"/>
      <use xlink:href="#ArialMT-65" transform="translate(383.447266 0)"/>
      <use xlink:href="#ArialMT-73" transform="translate(439.0625 0)"/>
      <use xlink:href="#ArialMT-73" transform="translate(489.0625 0)"/>
      <use xlink:href="#ArialMT-20" transform="translate(539.0625 0)"/>
      <use xlink:href="#ArialMT-28" transform="translate(566.845703 0)"/>
      <use xlink:href="#ArialMT-25" transform="translate(600.146484 0)"/>
      <use xlink:href="#ArialMT-29" transform="translate(689.0625 0)"/>
     </g>
    </g>
   </g>
   <g id="line2d_14">
    <path d="M 81.276648 209.260539 
L 118.615702 189.270686 
L 133.551323 181.185566 
L 170.890377 202.133438 
L 185.825998 182.097286 
L 223.165052 197.026952 
L 238.100674 203.306351 
L 275.439728 172.6862 
L 290.375349 167.009381 
L 327.714403 180.696333 
L 342.650024 206.381054 
L 379.989078 245.644881 
L 394.9247 187.948134 
L 432.263753 176.113958 
L 447.199375 175.594567 
L 484.538429 168.738111 
L 499.47405 201.168622 
L 536.813104 152.296432 
L 551.748726 165.841797 
L 589.087779 40.930682 
L 604.023401 126.315392 
L 641.362455 183.054909 
L 656.298076 166.123892 
L 693.63713 158.164413 
L 708.572752 113.119573 
L 745.911805 152.026743 
L 760.847427 149.380352 
L 798.186481 99.34035 
L 813.122102 144.335233 
" clip-path="url(#p4f8d19cae4)" style="fill: none; stroke: #1f77b4; stroke-width: 2; stroke-linecap: round"/>
    <defs>
     <path id="m18506cab88" d="M 0 3 
C 0.795609 3 1.55874 2.683901 2.12132 2.12132 
C 2.683901 1.55874 3 0.795609 3 0 
C 3 -0.795609 2.683901 -1.55874 2.12132 -2.12132 
C 1.55874 -2.683901 0.795609 -3 0 -3 
C -0.795609 -3 -1.55874 -2.683901 -2.12132 -2.12132 
C -2.683901 -1.55874 -3 -0.795609 -3 0 
C -3 0.795609 -2.683901 1.55874 -2.12132 2.12132 
C -1.55874 2.683901 -0.795609 3 0 3 
z
" style="stroke: #1f77b4"/>
    </defs>
    <g clip-path="url(#p4f8d19cae4)">
     <use xlink:href="#m18506cab88" x="81.276648" y="209.260539" style="fill: #1f77b4; stroke: #1f77b4"/>
     <use xlink:href="#m18506cab88" x="118.615702" y="189.270686" style="fill: #1f77b4; stroke: #1f77b4"/>
     <use xlink:href="#m18506cab88" x="133.551323" y="181.185566" style="fill: #1f77b4; stroke: #1f77b4"/>
     <use xlink:href="#m18506cab88" x="170.890377" y="202.133438" style="fill: #1f77b4; stroke: #1f77b4"/>
     <use xlink:href="#m18506cab88" x="185.825998" y="182.097286" style="fill: #1f77b4; stroke: #1f77b4"/>
     <use xlink:href="#m18506cab88" x="223.165052" y="197.026952" style="fill: #1f77b4; stroke: #1f77b4"/>
     <use xlink:href="#m18506cab88" x="238.100674" y="203.306351" style="fill: #1f77b4; stroke: #1f77b4"/>
     <use xlink:href="#m18506cab88" x="275.439728" y="172.6862" style="fill: #1f77b4; stroke: #1f77b4"/>
     <use xlink:href="#m18506cab88" x="290.375349" y="167.009381" style="fill: #1f77b4; stroke: #1f77b4"/>
     <use xlink:href="#m18506cab88" x="327.714403" y="180.696333" style="fill: #1f77b4; stroke: #1f77b4"/>
     <use xlink:href="#m18506cab88" x="342.650024" y="206.381054" style="fill: #1f77b4; stroke: #1f77b4"/>
     <use xlink:href="#m18506cab88" x="379.989078" y="245.644881" style="fill: #1f77b4; stroke: #1f77b4"/>
     <use xlink:href="#m18506cab88" x="394.9247" y="187.948134" style="fill: #1f77b4; stroke: #1f77b4"/>
     <use xlink:href="#m18506cab88" x="432.263753" y="176.113958" style="fill: #1f77b4; stroke: #1f77b4"/>
     <use xlink:href="#m18506cab88" x="447.199375" y="175.594567" style="fill: #1f77b4; stroke: #1f77b4"/>
     <use xlink:href="#m18506cab88" x="484.538429" y="168.738111" style="fill: #1f77b4; stroke: #1f77b4"/>
     <use xlink:href="#m18506cab88" x="499.47405" y="201.168622" style="fill: #1f77b4; stroke: #1f77b4"/>
     <use xlink:href="#m18506cab88" x="536.813104" y="152.296432" style="fill: #1f77b4; stroke: #1f77b4"/>
     <use xlink:href="#m18506cab88" x="551.748726" y="165.841797" style="fill: #1f77b4; stroke: #1f77b4"/>
     <use xlink:href="#m18506cab88" x="589.087779" y="40.930682" style="fill: #1f77b4; stroke: #1f77b4"/>
     <use xlink:href="#m18506cab88" x="604.023401" y="126.315392" style="fill: #1f77b4; stroke: #1f77b4"/>
     <use xlink:href="#m18506cab88" x="641.362455" y="183.054909" style="fill: #1f77b4; stroke: #1f77b4"/>
     <use xlink:href="#m18506cab88" x="656.298076" y="166.123892" style="fill: #1f77b4; stroke: #1f77b4"/>
     <use xlink:href="#m18506cab88" x="693.63713" y="158.164413" style="fill: #1f77b4; stroke: #1f77b4"/>
     <use xlink:href="#m18506cab88" x="708.572752" y="113.119573" style="fill: #1f77b4; stroke: #1f77b4"/>
     <use xlink:href="#m18506cab88" x="745.911805" y="152.026743" style="fill: #1f77b4; stroke: #1f77b4"/>
     <use xlink:href="#m18506cab88" x="760.847427" y="149.380352" style="fill: #1f77b4; stroke: #1f77b4"/>
     <use xlink:href="#m18506cab88" x="798.186481" y="99.34035" style="fill: #1f77b4; stroke: #1f77b4"/>
     <use xlink:href="#m18506cab88" x="813.122102" y="144.335233" style="fill: #1f77b4; stroke: #1f77b4"/>
    </g>
   </g>
   <g id="line2d_15">
    <path d="M 118.615702 366.494318 
L 133.551323 249.794819 
L 170.890377 237.10726 
L 185.825998 307.684293 
L 223.165052 293.551652 
L 238.100674 247.903219 
L 275.439728 310.072909 
L 290.375349 343.860784 
L 327.714403 277.630068 
L 342.650024 189.084692 
L 379.989078 237.590949 
L 394.9247 198.489637 
L 432.263753 235.607821 
L 447.199375 285.411966 
L 484.538429 216.579228 
L 499.47405 297.084812 
L 536.813104 266.684102 
L 551.748726 249.794819 
L 589.087779 297.084812 
L 604.023401 149.084648 
L 641.362455 293.289936 
L 656.298076 252.257839 
L 693.63713 323.813939 
L 708.572752 237.204626 
L 745.911805 256.991122 
L 760.847427 218.268157 
L 798.186481 215.11549 
L 813.122102 297.084812 
" clip-path="url(#p4f8d19cae4)" style="fill: none; stroke: #ff7f0e; stroke-width: 2; stroke-linecap: round"/>
    <defs>
     <path id="mac12c56bbe" d="M 0 3 
C 0.795609 3 1.55874 2.683901 2.12132 2.12132 
C 2.683901 1.55874 3 0.795609 3 0 
C 3 -0.795609 2.683901 -1.55874 2.12132 -2.12132 
C 1.55874 -2.683901 0.795609 -3 0 -3 
C -0.795609 -3 -1.55874 -2.683901 -2.12132 -2.12132 
C -2.683901 -1.55874 -3 -0.795609 -3 0 
C -3 0.795609 -2.683901 1.55874 -2.12132 2.12132 
C -1.55874 2.683901 -0.795609 3 0 3 
z
" style="stroke: #ff7f0e"/>
    </defs>
    <g clip-path="url(#p4f8d19cae4)">
     <use xlink:href="#mac12c56bbe" x="118.615702" y="366.494318" style="fill: #ff7f0e; stroke: #ff7f0e"/>
     <use xlink:href="#mac12c56bbe" x="133.551323" y="249.794819" style="fill: #ff7f0e; stroke: #ff7f0e"/>
     <use xlink:href="#mac12c56bbe" x="170.890377" y="237.10726" style="fill: #ff7f0e; stroke: #ff7f0e"/>
     <use xlink:href="#mac12c56bbe" x="185.825998" y="307.684293" style="fill: #ff7f0e; stroke: #ff7f0e"/>
     <use xlink:href="#mac12c56bbe" x="223.165052" y="293.551652" style="fill: #ff7f0e; stroke: #ff7f0e"/>
     <use xlink:href="#mac12c56bbe" x="238.100674" y="247.903219" style="fill: #ff7f0e; stroke: #ff7f0e"/>
     <use xlink:href="#mac12c56bbe" x="275.439728" y="310.072909" style="fill: #ff7f0e; stroke: #ff7f0e"/>
     <use xlink:href="#mac12c56bbe" x="290.375349" y="343.860784" style="fill: #ff7f0e; stroke: #ff7f0e"/>
     <use xlink:href="#mac12c56bbe" x="327.714403" y="277.630068" style="fill: #ff7f0e; stroke: #ff7f0e"/>
     <use xlink:href="#mac12c56bbe" x="342.650024" y="189.084692" style="fill: #ff7f0e; stroke: #ff7f0e"/>
     <use xlink:href="#mac12c56bbe" x="379.989078" y="237.590949" style="fill: #ff7f0e; stroke: #ff7f0e"/>
     <use xlink:href="#mac12c56bbe" x="394.9247" y="198.489637" style="fill: #ff7f0e; stroke: #ff7f0e"/>
     <use xlink:href="#mac12c56bbe" x="432.263753" y="235.607821" style="fill: #ff7f0e; stroke: #ff7f0e"/>
     <use xlink:href="#mac12c56bbe" x="447.199375" y="285.411966" style="fill: #ff7f0e; stroke: #ff7f0e"/>
     <use xlink:href="#mac12c56bbe" x="484.538429" y="216.579228" style="fill: #ff7f0e; stroke: #ff7f0e"/>
     <use xlink:href="#mac12c56bbe" x="499.47405" y="297.084812" style="fill: #ff7f0e; stroke: #ff7f0e"/>
     <use xlink:href="#mac12c56bbe" x="536.813104" y="266.684102" style="fill: #ff7f0e; stroke: #ff7f0e"/>
     <use xlink:href="#mac12c56bbe" x="551.748726" y="249.794819" style="fill: #ff7f0e; stroke: #ff7f0e"/>
     <use xlink:href="#mac12c56bbe" x="589.087779" y="297.084812" style="fill: #ff7f0e; stroke: #ff7f0e"/>
     <use xlink:href="#mac12c56bbe" x="604.023401" y="149.084648" style="fill: #ff7f0e; stroke: #ff7f0e"/>
     <use xlink:href="#mac12c56bbe" x="641.362455" y="293.289936" style="fill: #ff7f0e; stroke: #ff7f0e"/>
     <use xlink:href="#mac12c56bbe" x="656.298076" y="252.257839" style="fill: #ff7f0e; stroke: #ff7f0e"/>
     <use xlink:href="#mac12c56bbe" x="693.63713" y="323.813939" style="fill: #ff7f0e; stroke: #ff7f0e"/>
     <use xlink:href="#mac12c56bbe" x="708.572752" y="237.204626" style="fill: #ff7f0e; stroke: #ff7f0e"/>
     <use xlink:href="#mac12c56bbe" x="745.911805" y="256.991122" style="fill: #ff7f0e; stroke: #ff7f0e"/>
     <use xlink:href="#mac12c56bbe" x="760.847427" y="218.268157" style="fill: #ff7f0e; stroke: #ff7f0e"/>
     <use xlink:href="#mac12c56bbe" x="798.186481" y="215.11549" style="fill: #ff7f0e; stroke: #ff7f0e"/>
     <use xlink:href="#mac12c56bbe" x="813.122102" y="297.084812" style="fill: #ff7f0e; stroke: #ff7f0e"/>
    </g>
   </g>
   <g id="patch_3">
    <path d="M 44.684375 382.7725 
L 44.684375 24.6525 
" style="fill: none; stroke: #ffffff; stroke-width: 0.8; stroke-linejoin: miter; stroke-linecap: square"/>
   </g>
   <g id="patch_4">
    <path d="M 44.684375 382.7725 
L 849.714375 382.7725 
" style="fill: none; stroke: #ffffff; stroke-width: 0.8; stroke-linejoin: miter; stroke-linecap: square"/>
   </g>
   <g id="text_16">
    <!-- Correctness Over Time -->
    <g style="fill: #262626" transform="translate(364.960625 18.6525) scale(0.16 -0.16)">
     <defs>
      <path id="ArialMT-4f" d="M 309 2231 
Q 309 3372 921 4017 
Q 1534 4663 2503 4663 
Q 3138 4663 3647 4359 
Q 4156 4056 4423 3514 
Q 4691 2972 4691 2284 
Q 4691 1588 4409 1038 
Q 4128 488 3612 205 
Q 3097 -78 2500 -78 
Q 1853 -78 1343 234 
Q 834 547 571 1087 
Q 309 1628 309 2231 
z
M 934 2222 
Q 934 1394 1379 917 
Q 1825 441 2497 441 
Q 3181 441 3623 922 
Q 4066 1403 4066 2288 
Q 4066 2847 3877 3264 
Q 3688 3681 3323 3911 
Q 2959 4141 2506 4141 
Q 1863 4141 1398 3698 
Q 934 3256 934 2222 
z
" transform="scale(0.015625)"/>
      <path id="ArialMT-76" d="M 1344 0 
L 81 3319 
L 675 3319 
L 1388 1331 
Q 1503 1009 1600 663 
Q 1675 925 1809 1294 
L 2547 3319 
L 3125 3319 
L 1869 0 
L 1344 0 
z
" transform="scale(0.015625)"/>
      <path id="ArialMT-54" d="M 1659 0 
L 1659 4041 
L 150 4041 
L 150 4581 
L 3781 4581 
L 3781 4041 
L 2266 4041 
L 2266 0 
L 1659 0 
z
" transform="scale(0.015625)"/>
      <path id="ArialMT-69" d="M 425 3934 
L 425 4581 
L 988 4581 
L 988 3934 
L 425 3934 
z
M 425 0 
L 425 3319 
L 988 3319 
L 988 0 
L 425 0 
z
" transform="scale(0.015625)"/>
      <path id="ArialMT-6d" d="M 422 0 
L 422 3319 
L 925 3319 
L 925 2853 
Q 1081 3097 1340 3245 
Q 1600 3394 1931 3394 
Q 2300 3394 2536 3241 
Q 2772 3088 2869 2813 
Q 3263 3394 3894 3394 
Q 4388 3394 4653 3120 
Q 4919 2847 4919 2278 
L 4919 0 
L 4359 0 
L 4359 2091 
Q 4359 2428 4304 2576 
Q 4250 2725 4106 2815 
Q 3963 2906 3769 2906 
Q 3419 2906 3187 2673 
Q 2956 2441 2956 1928 
L 2956 0 
L 2394 0 
L 2394 2156 
Q 2394 2531 2256 2718 
Q 2119 2906 1806 2906 
Q 1569 2906 1367 2781 
Q 1166 2656 1075 2415 
Q 984 2175 984 1722 
L 984 0 
L 422 0 
z
" transform="scale(0.015625)"/>
     </defs>
     <use xlink:href="#ArialMT-43"/>
     <use xlink:href="#ArialMT-6f" transform="translate(72.216797 0)"/>
     <use xlink:href="#ArialMT-72" transform="translate(127.832031 0)"/>
     <use xlink:href="#ArialMT-72" transform="translate(161.132812 0)"/>
     <use xlink:href="#ArialMT-65" transform="translate(194.433594 0)"/>
     <use xlink:href="#ArialMT-63" transform="translate(250.048828 0)"/>
     <use xlink:href="#ArialMT-74" transform="translate(300.048828 0)"/>
     <use xlink:href="#ArialMT-6e" transform="translate(327.832031 0)"/>
     <use xlink:href="#ArialMT-65" transform="translate(383.447266 0)"/>
     <use xlink:href="#ArialMT-73" transform="translate(439.0625 0)"/>
     <use xlink:href="#ArialMT-73" transform="translate(489.0625 0)"/>
     <use xlink:href="#ArialMT-20" transform="translate(539.0625 0)"/>
     <use xlink:href="#ArialMT-4f" transform="translate(566.845703 0)"/>
     <use xlink:href="#ArialMT-76" transform="translate(644.628906 0)"/>
     <use xlink:href="#ArialMT-65" transform="translate(694.628906 0)"/>
     <use xlink:href="#ArialMT-72" transform="translate(750.244141 0)"/>
     <use xlink:href="#ArialMT-20" transform="translate(783.544922 0)"/>
     <use xlink:href="#ArialMT-54" transform="translate(809.578125 0)"/>
     <use xlink:href="#ArialMT-69" transform="translate(866.912109 0)"/>
     <use xlink:href="#ArialMT-6d" transform="translate(889.128906 0)"/>
     <use xlink:href="#ArialMT-65" transform="translate(972.429688 0)"/>
    </g>
   </g>
   <g id="legend_1">
    <g id="line2d_16">
     <path d="M 677.2875 39.988125 
L 689.2875 39.988125 
L 701.2875 39.988125 
" style="fill: none; stroke: #1f77b4; stroke-width: 2; stroke-linecap: round"/>
     <g>
      <use xlink:href="#m18506cab88" x="689.2875" y="39.988125" style="fill: #1f77b4; stroke: #1f77b4"/>
     </g>
    </g>
    <g id="text_17">
     <!-- Correctness (Trash) -->
     <g style="fill: #262626" transform="translate(710.8875 44.188125) scale(0.12 -0.12)">
      <defs>
       <path id="ArialMT-68" d="M 422 0 
L 422 4581 
L 984 4581 
L 984 2938 
Q 1378 3394 1978 3394 
Q 2347 3394 2619 3248 
Q 2891 3103 3008 2847 
Q 3125 2591 3125 2103 
L 3125 0 
L 2563 0 
L 2563 2103 
Q 2563 2525 2380 2717 
Q 2197 2909 1863 2909 
Q 1613 2909 1392 2779 
Q 1172 2650 1078 2428 
Q 984 2206 984 1816 
L 984 0 
L 422 0 
z
" transform="scale(0.015625)"/>
      </defs>
      <use xlink:href="#ArialMT-43"/>
      <use xlink:href="#ArialMT-6f" transform="translate(72.216797 0)"/>
      <use xlink:href="#ArialMT-72" transform="translate(127.832031 0)"/>
      <use xlink:href="#ArialMT-72" transform="translate(161.132812 0)"/>
      <use xlink:href="#ArialMT-65" transform="translate(194.433594 0)"/>
      <use xlink:href="#ArialMT-63" transform="translate(250.048828 0)"/>
      <use xlink:href="#ArialMT-74" transform="translate(300.048828 0)"/>
      <use xlink:href="#ArialMT-6e" transform="translate(327.832031 0)"/>
      <use xlink:href="#ArialMT-65" transform="translate(383.447266 0)"/>
      <use xlink:href="#ArialMT-73" transform="translate(439.0625 0)"/>
      <use xlink:href="#ArialMT-73" transform="translate(489.0625 0)"/>
      <use xlink:href="#ArialMT-20" transform="translate(539.0625 0)"/>
      <use xlink:href="#ArialMT-28" transform="translate(566.845703 0)"/>
      <use xlink:href="#ArialMT-54" transform="translate(600.146484 0)"/>
      <use xlink:href="#ArialMT-72" transform="translate(657.480469 0)"/>
      <use xlink:href="#ArialMT-61" transform="translate(690.78125 0)"/>
      <use xlink:href="#ArialMT-73" transform="translate(746.396484 0)"/>
      <use xlink:href="#ArialMT-68" transform="translate(796.396484 0)"/>
      <use xlink:href="#ArialMT-29" transform="translate(852.011719 0)"/>
     </g>
    </g>
    <g id="line2d_17">
     <path d="M 677.2875 57.249375 
L 689.2875 57.249375 
L 701.2875 57.249375 
" style="fill: none; stroke: #ff7f0e; stroke-width: 2; stroke-linecap: round"/>
     <g>
      <use xlink:href="#mac12c56bbe" x="689.2875" y="57.249375" style="fill: #ff7f0e; stroke: #ff7f0e"/>
     </g>
    </g>
    <g id="text_18">
     <!-- Correctness (Recycling) -->
     <g style="fill: #262626" transform="translate(710.8875 61.449375) scale(0.12 -0.12)">
      <defs>
       <path id="ArialMT-52" d="M 503 0 
L 503 4581 
L 2534 4581 
Q 3147 4581 3465 4457 
Q 3784 4334 3975 4021 
Q 4166 3709 4166 3331 
Q 4166 2844 3850 2509 
Q 3534 2175 2875 2084 
Q 3116 1969 3241 1856 
Q 3506 1613 3744 1247 
L 4541 0 
L 3778 0 
L 3172 953 
Q 2906 1366 2734 1584 
Q 2563 1803 2427 1890 
Q 2291 1978 2150 2013 
Q 2047 2034 1813 2034 
L 1109 2034 
L 1109 0 
L 503 0 
z
M 1109 2559 
L 2413 2559 
Q 2828 2559 3062 2645 
Q 3297 2731 3419 2920 
Q 3541 3109 3541 3331 
Q 3541 3656 3305 3865 
Q 3069 4075 2559 4075 
L 1109 4075 
L 1109 2559 
z
" transform="scale(0.015625)"/>
       <path id="ArialMT-79" d="M 397 -1278 
L 334 -750 
Q 519 -800 656 -800 
Q 844 -800 956 -737 
Q 1069 -675 1141 -563 
Q 1194 -478 1313 -144 
Q 1328 -97 1363 -6 
L 103 3319 
L 709 3319 
L 1400 1397 
Q 1534 1031 1641 628 
Q 1738 1016 1872 1384 
L 2581 3319 
L 3144 3319 
L 1881 -56 
Q 1678 -603 1566 -809 
Q 1416 -1088 1222 -1217 
Q 1028 -1347 759 -1347 
Q 597 -1347 397 -1278 
z
" transform="scale(0.015625)"/>
       <path id="ArialMT-6c" d="M 409 0 
L 409 4581 
L 972 4581 
L 972 0 
L 409 0 
z
" transform="scale(0.015625)"/>
       <path id="ArialMT-67" d="M 319 -275 
L 866 -356 
Q 900 -609 1056 -725 
Q 1266 -881 1628 -881 
Q 2019 -881 2231 -725 
Q 2444 -569 2519 -288 
Q 2563 -116 2559 434 
Q 2191 0 1641 0 
Q 956 0 581 494 
Q 206 988 206 1678 
Q 206 2153 378 2554 
Q 550 2956 876 3175 
Q 1203 3394 1644 3394 
Q 2231 3394 2613 2919 
L 2613 3319 
L 3131 3319 
L 3131 450 
Q 3131 -325 2973 -648 
Q 2816 -972 2473 -1159 
Q 2131 -1347 1631 -1347 
Q 1038 -1347 672 -1080 
Q 306 -813 319 -275 
z
M 784 1719 
Q 784 1066 1043 766 
Q 1303 466 1694 466 
Q 2081 466 2343 764 
Q 2606 1063 2606 1700 
Q 2606 2309 2336 2618 
Q 2066 2928 1684 2928 
Q 1309 2928 1046 2623 
Q 784 2319 784 1719 
z
" transform="scale(0.015625)"/>
      </defs>
      <use xlink:href="#ArialMT-43"/>
      <use xlink:href="#ArialMT-6f" transform="translate(72.216797 0)"/>
      <use xlink:href="#ArialMT-72" transform="translate(127.832031 0)"/>
      <use xlink:href="#ArialMT-72" transform="translate(161.132812 0)"/>
      <use xlink:href="#ArialMT-65" transform="translate(194.433594 0)"/>
      <use xlink:href="#ArialMT-63" transform="translate(250.048828 0)"/>
      <use xlink:href="#ArialMT-74" transform="translate(300.048828 0)"/>
      <use xlink:href="#ArialMT-6e" transform="translate(327.832031 0)"/>
      <use xlink:href="#ArialMT-65" transform="translate(383.447266 0)"/>
      <use xlink:href="#ArialMT-73" transform="translate(439.0625 0)"/>
      <use xlink:href="#ArialMT-73" transform="translate(489.0625 0)"/>
      <use xlink:href="#ArialMT-20" transform="translate(539.0625 0)"/>
      <use xlink:href="#ArialMT-28" transform="translate(566.845703 0)"/>
      <use xlink:href="#ArialMT-52" transform="translate(600.146484 0)"/>
      <use xlink:href="#ArialMT-65" transform="translate(672.363281 0)"/>
      <use xlink:href="#ArialMT-63" transform="translate(727.978516 0)"/>
      <use xlink:href="#ArialMT-79" transform="translate(777.978516 0)"/>
      <use xlink:href="#ArialMT-63" transform="translate(827.978516 0)"/>
      <use xlink:href="#ArialMT-6c" transform="translate(877.978516 0)"/>
      <use xlink:href="#ArialMT-69" transform="translate(900.195312 0)"/>
      <use xlink:href="#ArialMT-6e" transform="translate(922.412109 0)"/>
      <use xlink:href="#ArialMT-67" transform="translate(978.027344 0)"/>
      <use xlink:href="#ArialMT-29" transform="translate(1033.642578 0)"/>
     </g>
    </g>
   </g>
  </g>
 </g>
 <defs>
  <clipPath id="p4f8d19cae4">
   <rect x="44.684375" y="24.6525" width="805.03" height="358.12"/>
  </clipPath>
 </defs>
</svg>
